G04 #@! TF.GenerationSoftware,KiCad,Pcbnew,5.1.6*
G04 #@! TF.CreationDate,2020-05-21T11:43:50+02:00*
G04 #@! TF.ProjectId,glasgow,676c6173-676f-4772-9e6b-696361645f70,rev?*
G04 #@! TF.SameCoordinates,Original*
G04 #@! TF.FileFunction,Paste,Top*
G04 #@! TF.FilePolarity,Positive*
%FSLAX46Y46*%
G04 Gerber Fmt 4.6, Leading zero omitted, Abs format (unit mm)*
G04 Created by KiCad (PCBNEW 5.1.6) date 2020-05-21 11:43:50*
%MOMM*%
%LPD*%
G01*
G04 APERTURE LIST*
%ADD10R,3.000000X1.600000*%
%ADD11R,1.060000X0.650000*%
%ADD12R,0.650000X0.350000*%
%ADD13R,0.820000X0.630000*%
%ADD14R,1.400000X1.200000*%
%ADD15R,0.700000X0.350000*%
%ADD16R,0.700000X0.600000*%
%ADD17C,0.100000*%
%ADD18R,0.300000X0.500000*%
%ADD19R,0.450000X0.500000*%
%ADD20C,0.350000*%
%ADD21R,0.800000X0.300000*%
%ADD22R,1.500000X0.450000*%
%ADD23R,0.300000X0.800000*%
%ADD24R,1.450000X0.450000*%
%ADD25R,0.740000X2.400000*%
%ADD26R,2.600000X2.600000*%
%ADD27O,0.280000X1.000000*%
%ADD28O,1.000000X0.280000*%
%ADD29R,0.650000X1.060000*%
%ADD30R,1.550000X0.600000*%
%ADD31R,1.900000X1.175000*%
%ADD32R,1.900000X2.375000*%
%ADD33R,2.100000X1.475000*%
%ADD34R,1.380000X0.450000*%
G04 APERTURE END LIST*
D10*
X67800000Y-103850000D03*
X72200000Y-103850000D03*
D11*
X122100000Y-89550000D03*
X122100000Y-87650000D03*
X124300000Y-87650000D03*
X124300000Y-88600000D03*
X124300000Y-89550000D03*
D12*
X66950000Y-110550000D03*
X66950000Y-109900000D03*
X66950000Y-109250000D03*
X64850000Y-109250000D03*
X64850000Y-109900000D03*
X64850000Y-110550000D03*
D13*
X65900000Y-110300000D03*
X65900000Y-109500000D03*
D12*
X66950000Y-115650000D03*
X66950000Y-115000000D03*
X66950000Y-114350000D03*
X64850000Y-114350000D03*
X64850000Y-115000000D03*
X64850000Y-115650000D03*
D13*
X65900000Y-115400000D03*
X65900000Y-114600000D03*
G36*
G01*
X65550000Y-111662500D02*
X65550000Y-112137500D01*
G75*
G02*
X65312500Y-112375000I-237500J0D01*
G01*
X64737500Y-112375000D01*
G75*
G02*
X64500000Y-112137500I0J237500D01*
G01*
X64500000Y-111662500D01*
G75*
G02*
X64737500Y-111425000I237500J0D01*
G01*
X65312500Y-111425000D01*
G75*
G02*
X65550000Y-111662500I0J-237500D01*
G01*
G37*
G36*
G01*
X67300000Y-111662500D02*
X67300000Y-112137500D01*
G75*
G02*
X67062500Y-112375000I-237500J0D01*
G01*
X66487500Y-112375000D01*
G75*
G02*
X66250000Y-112137500I0J237500D01*
G01*
X66250000Y-111662500D01*
G75*
G02*
X66487500Y-111425000I237500J0D01*
G01*
X67062500Y-111425000D01*
G75*
G02*
X67300000Y-111662500I0J-237500D01*
G01*
G37*
D14*
X60500000Y-91750000D03*
X62700000Y-91750000D03*
X62700000Y-93450000D03*
X60500000Y-93450000D03*
G36*
G01*
X57500000Y-109987500D02*
X57500000Y-109512500D01*
G75*
G02*
X57737500Y-109275000I237500J0D01*
G01*
X58312500Y-109275000D01*
G75*
G02*
X58550000Y-109512500I0J-237500D01*
G01*
X58550000Y-109987500D01*
G75*
G02*
X58312500Y-110225000I-237500J0D01*
G01*
X57737500Y-110225000D01*
G75*
G02*
X57500000Y-109987500I0J237500D01*
G01*
G37*
G36*
G01*
X55750000Y-109987500D02*
X55750000Y-109512500D01*
G75*
G02*
X55987500Y-109275000I237500J0D01*
G01*
X56562500Y-109275000D01*
G75*
G02*
X56800000Y-109512500I0J-237500D01*
G01*
X56800000Y-109987500D01*
G75*
G02*
X56562500Y-110225000I-237500J0D01*
G01*
X55987500Y-110225000D01*
G75*
G02*
X55750000Y-109987500I0J237500D01*
G01*
G37*
G36*
G01*
X57500000Y-108237500D02*
X57500000Y-107762500D01*
G75*
G02*
X57737500Y-107525000I237500J0D01*
G01*
X58312500Y-107525000D01*
G75*
G02*
X58550000Y-107762500I0J-237500D01*
G01*
X58550000Y-108237500D01*
G75*
G02*
X58312500Y-108475000I-237500J0D01*
G01*
X57737500Y-108475000D01*
G75*
G02*
X57500000Y-108237500I0J237500D01*
G01*
G37*
G36*
G01*
X55750000Y-108237500D02*
X55750000Y-107762500D01*
G75*
G02*
X55987500Y-107525000I237500J0D01*
G01*
X56562500Y-107525000D01*
G75*
G02*
X56800000Y-107762500I0J-237500D01*
G01*
X56800000Y-108237500D01*
G75*
G02*
X56562500Y-108475000I-237500J0D01*
G01*
X55987500Y-108475000D01*
G75*
G02*
X55750000Y-108237500I0J237500D01*
G01*
G37*
G36*
G01*
X57500000Y-106487500D02*
X57500000Y-106012500D01*
G75*
G02*
X57737500Y-105775000I237500J0D01*
G01*
X58312500Y-105775000D01*
G75*
G02*
X58550000Y-106012500I0J-237500D01*
G01*
X58550000Y-106487500D01*
G75*
G02*
X58312500Y-106725000I-237500J0D01*
G01*
X57737500Y-106725000D01*
G75*
G02*
X57500000Y-106487500I0J237500D01*
G01*
G37*
G36*
G01*
X55750000Y-106487500D02*
X55750000Y-106012500D01*
G75*
G02*
X55987500Y-105775000I237500J0D01*
G01*
X56562500Y-105775000D01*
G75*
G02*
X56800000Y-106012500I0J-237500D01*
G01*
X56800000Y-106487500D01*
G75*
G02*
X56562500Y-106725000I-237500J0D01*
G01*
X55987500Y-106725000D01*
G75*
G02*
X55750000Y-106487500I0J237500D01*
G01*
G37*
G36*
G01*
X57500000Y-104737500D02*
X57500000Y-104262500D01*
G75*
G02*
X57737500Y-104025000I237500J0D01*
G01*
X58312500Y-104025000D01*
G75*
G02*
X58550000Y-104262500I0J-237500D01*
G01*
X58550000Y-104737500D01*
G75*
G02*
X58312500Y-104975000I-237500J0D01*
G01*
X57737500Y-104975000D01*
G75*
G02*
X57500000Y-104737500I0J237500D01*
G01*
G37*
G36*
G01*
X55750000Y-104737500D02*
X55750000Y-104262500D01*
G75*
G02*
X55987500Y-104025000I237500J0D01*
G01*
X56562500Y-104025000D01*
G75*
G02*
X56800000Y-104262500I0J-237500D01*
G01*
X56800000Y-104737500D01*
G75*
G02*
X56562500Y-104975000I-237500J0D01*
G01*
X55987500Y-104975000D01*
G75*
G02*
X55750000Y-104737500I0J237500D01*
G01*
G37*
G36*
G01*
X57500000Y-102987500D02*
X57500000Y-102512500D01*
G75*
G02*
X57737500Y-102275000I237500J0D01*
G01*
X58312500Y-102275000D01*
G75*
G02*
X58550000Y-102512500I0J-237500D01*
G01*
X58550000Y-102987500D01*
G75*
G02*
X58312500Y-103225000I-237500J0D01*
G01*
X57737500Y-103225000D01*
G75*
G02*
X57500000Y-102987500I0J237500D01*
G01*
G37*
G36*
G01*
X55750000Y-102987500D02*
X55750000Y-102512500D01*
G75*
G02*
X55987500Y-102275000I237500J0D01*
G01*
X56562500Y-102275000D01*
G75*
G02*
X56800000Y-102512500I0J-237500D01*
G01*
X56800000Y-102987500D01*
G75*
G02*
X56562500Y-103225000I-237500J0D01*
G01*
X55987500Y-103225000D01*
G75*
G02*
X55750000Y-102987500I0J237500D01*
G01*
G37*
G36*
G01*
X57500000Y-88487500D02*
X57500000Y-88012500D01*
G75*
G02*
X57737500Y-87775000I237500J0D01*
G01*
X58312500Y-87775000D01*
G75*
G02*
X58550000Y-88012500I0J-237500D01*
G01*
X58550000Y-88487500D01*
G75*
G02*
X58312500Y-88725000I-237500J0D01*
G01*
X57737500Y-88725000D01*
G75*
G02*
X57500000Y-88487500I0J237500D01*
G01*
G37*
G36*
G01*
X55750000Y-88487500D02*
X55750000Y-88012500D01*
G75*
G02*
X55987500Y-87775000I237500J0D01*
G01*
X56562500Y-87775000D01*
G75*
G02*
X56800000Y-88012500I0J-237500D01*
G01*
X56800000Y-88487500D01*
G75*
G02*
X56562500Y-88725000I-237500J0D01*
G01*
X55987500Y-88725000D01*
G75*
G02*
X55750000Y-88487500I0J237500D01*
G01*
G37*
G36*
G01*
X57500000Y-86737500D02*
X57500000Y-86262500D01*
G75*
G02*
X57737500Y-86025000I237500J0D01*
G01*
X58312500Y-86025000D01*
G75*
G02*
X58550000Y-86262500I0J-237500D01*
G01*
X58550000Y-86737500D01*
G75*
G02*
X58312500Y-86975000I-237500J0D01*
G01*
X57737500Y-86975000D01*
G75*
G02*
X57500000Y-86737500I0J237500D01*
G01*
G37*
G36*
G01*
X55750000Y-86737500D02*
X55750000Y-86262500D01*
G75*
G02*
X55987500Y-86025000I237500J0D01*
G01*
X56562500Y-86025000D01*
G75*
G02*
X56800000Y-86262500I0J-237500D01*
G01*
X56800000Y-86737500D01*
G75*
G02*
X56562500Y-86975000I-237500J0D01*
G01*
X55987500Y-86975000D01*
G75*
G02*
X55750000Y-86737500I0J237500D01*
G01*
G37*
G36*
G01*
X57500000Y-84987500D02*
X57500000Y-84512500D01*
G75*
G02*
X57737500Y-84275000I237500J0D01*
G01*
X58312500Y-84275000D01*
G75*
G02*
X58550000Y-84512500I0J-237500D01*
G01*
X58550000Y-84987500D01*
G75*
G02*
X58312500Y-85225000I-237500J0D01*
G01*
X57737500Y-85225000D01*
G75*
G02*
X57500000Y-84987500I0J237500D01*
G01*
G37*
G36*
G01*
X55750000Y-84987500D02*
X55750000Y-84512500D01*
G75*
G02*
X55987500Y-84275000I237500J0D01*
G01*
X56562500Y-84275000D01*
G75*
G02*
X56800000Y-84512500I0J-237500D01*
G01*
X56800000Y-84987500D01*
G75*
G02*
X56562500Y-85225000I-237500J0D01*
G01*
X55987500Y-85225000D01*
G75*
G02*
X55750000Y-84987500I0J237500D01*
G01*
G37*
G36*
G01*
X57500000Y-83237500D02*
X57500000Y-82762500D01*
G75*
G02*
X57737500Y-82525000I237500J0D01*
G01*
X58312500Y-82525000D01*
G75*
G02*
X58550000Y-82762500I0J-237500D01*
G01*
X58550000Y-83237500D01*
G75*
G02*
X58312500Y-83475000I-237500J0D01*
G01*
X57737500Y-83475000D01*
G75*
G02*
X57500000Y-83237500I0J237500D01*
G01*
G37*
G36*
G01*
X55750000Y-83237500D02*
X55750000Y-82762500D01*
G75*
G02*
X55987500Y-82525000I237500J0D01*
G01*
X56562500Y-82525000D01*
G75*
G02*
X56800000Y-82762500I0J-237500D01*
G01*
X56800000Y-83237500D01*
G75*
G02*
X56562500Y-83475000I-237500J0D01*
G01*
X55987500Y-83475000D01*
G75*
G02*
X55750000Y-83237500I0J237500D01*
G01*
G37*
G36*
G01*
X57500000Y-81487500D02*
X57500000Y-81012500D01*
G75*
G02*
X57737500Y-80775000I237500J0D01*
G01*
X58312500Y-80775000D01*
G75*
G02*
X58550000Y-81012500I0J-237500D01*
G01*
X58550000Y-81487500D01*
G75*
G02*
X58312500Y-81725000I-237500J0D01*
G01*
X57737500Y-81725000D01*
G75*
G02*
X57500000Y-81487500I0J237500D01*
G01*
G37*
G36*
G01*
X55750000Y-81487500D02*
X55750000Y-81012500D01*
G75*
G02*
X55987500Y-80775000I237500J0D01*
G01*
X56562500Y-80775000D01*
G75*
G02*
X56800000Y-81012500I0J-237500D01*
G01*
X56800000Y-81487500D01*
G75*
G02*
X56562500Y-81725000I-237500J0D01*
G01*
X55987500Y-81725000D01*
G75*
G02*
X55750000Y-81487500I0J237500D01*
G01*
G37*
G36*
G01*
X121227500Y-78990000D02*
X121572500Y-78990000D01*
G75*
G02*
X121720000Y-79137500I0J-147500D01*
G01*
X121720000Y-79432500D01*
G75*
G02*
X121572500Y-79580000I-147500J0D01*
G01*
X121227500Y-79580000D01*
G75*
G02*
X121080000Y-79432500I0J147500D01*
G01*
X121080000Y-79137500D01*
G75*
G02*
X121227500Y-78990000I147500J0D01*
G01*
G37*
G36*
G01*
X121227500Y-78020000D02*
X121572500Y-78020000D01*
G75*
G02*
X121720000Y-78167500I0J-147500D01*
G01*
X121720000Y-78462500D01*
G75*
G02*
X121572500Y-78610000I-147500J0D01*
G01*
X121227500Y-78610000D01*
G75*
G02*
X121080000Y-78462500I0J147500D01*
G01*
X121080000Y-78167500D01*
G75*
G02*
X121227500Y-78020000I147500J0D01*
G01*
G37*
G36*
G01*
X121572500Y-112010000D02*
X121227500Y-112010000D01*
G75*
G02*
X121080000Y-111862500I0J147500D01*
G01*
X121080000Y-111567500D01*
G75*
G02*
X121227500Y-111420000I147500J0D01*
G01*
X121572500Y-111420000D01*
G75*
G02*
X121720000Y-111567500I0J-147500D01*
G01*
X121720000Y-111862500D01*
G75*
G02*
X121572500Y-112010000I-147500J0D01*
G01*
G37*
G36*
G01*
X121572500Y-112980000D02*
X121227500Y-112980000D01*
G75*
G02*
X121080000Y-112832500I0J147500D01*
G01*
X121080000Y-112537500D01*
G75*
G02*
X121227500Y-112390000I147500J0D01*
G01*
X121572500Y-112390000D01*
G75*
G02*
X121720000Y-112537500I0J-147500D01*
G01*
X121720000Y-112832500D01*
G75*
G02*
X121572500Y-112980000I-147500J0D01*
G01*
G37*
G36*
G01*
X122250000Y-80262500D02*
X122250000Y-80737500D01*
G75*
G02*
X122012500Y-80975000I-237500J0D01*
G01*
X121437500Y-80975000D01*
G75*
G02*
X121200000Y-80737500I0J237500D01*
G01*
X121200000Y-80262500D01*
G75*
G02*
X121437500Y-80025000I237500J0D01*
G01*
X122012500Y-80025000D01*
G75*
G02*
X122250000Y-80262500I0J-237500D01*
G01*
G37*
G36*
G01*
X124000000Y-80262500D02*
X124000000Y-80737500D01*
G75*
G02*
X123762500Y-80975000I-237500J0D01*
G01*
X123187500Y-80975000D01*
G75*
G02*
X122950000Y-80737500I0J237500D01*
G01*
X122950000Y-80262500D01*
G75*
G02*
X123187500Y-80025000I237500J0D01*
G01*
X123762500Y-80025000D01*
G75*
G02*
X124000000Y-80262500I0J-237500D01*
G01*
G37*
G36*
G01*
X122250000Y-110262500D02*
X122250000Y-110737500D01*
G75*
G02*
X122012500Y-110975000I-237500J0D01*
G01*
X121437500Y-110975000D01*
G75*
G02*
X121200000Y-110737500I0J237500D01*
G01*
X121200000Y-110262500D01*
G75*
G02*
X121437500Y-110025000I237500J0D01*
G01*
X122012500Y-110025000D01*
G75*
G02*
X122250000Y-110262500I0J-237500D01*
G01*
G37*
G36*
G01*
X124000000Y-110262500D02*
X124000000Y-110737500D01*
G75*
G02*
X123762500Y-110975000I-237500J0D01*
G01*
X123187500Y-110975000D01*
G75*
G02*
X122950000Y-110737500I0J237500D01*
G01*
X122950000Y-110262500D01*
G75*
G02*
X123187500Y-110025000I237500J0D01*
G01*
X123762500Y-110025000D01*
G75*
G02*
X124000000Y-110262500I0J-237500D01*
G01*
G37*
D15*
X91500000Y-99600000D03*
X91500000Y-100100000D03*
X90000000Y-99600000D03*
X91500000Y-99100000D03*
X90000000Y-100100000D03*
X90000000Y-99100000D03*
G36*
G01*
X90260000Y-100977500D02*
X90260000Y-101322500D01*
G75*
G02*
X90112500Y-101470000I-147500J0D01*
G01*
X89817500Y-101470000D01*
G75*
G02*
X89670000Y-101322500I0J147500D01*
G01*
X89670000Y-100977500D01*
G75*
G02*
X89817500Y-100830000I147500J0D01*
G01*
X90112500Y-100830000D01*
G75*
G02*
X90260000Y-100977500I0J-147500D01*
G01*
G37*
G36*
G01*
X91230000Y-100977500D02*
X91230000Y-101322500D01*
G75*
G02*
X91082500Y-101470000I-147500J0D01*
G01*
X90787500Y-101470000D01*
G75*
G02*
X90640000Y-101322500I0J147500D01*
G01*
X90640000Y-100977500D01*
G75*
G02*
X90787500Y-100830000I147500J0D01*
G01*
X91082500Y-100830000D01*
G75*
G02*
X91230000Y-100977500I0J-147500D01*
G01*
G37*
G36*
G01*
X79372500Y-110810000D02*
X79027500Y-110810000D01*
G75*
G02*
X78880000Y-110662500I0J147500D01*
G01*
X78880000Y-110367500D01*
G75*
G02*
X79027500Y-110220000I147500J0D01*
G01*
X79372500Y-110220000D01*
G75*
G02*
X79520000Y-110367500I0J-147500D01*
G01*
X79520000Y-110662500D01*
G75*
G02*
X79372500Y-110810000I-147500J0D01*
G01*
G37*
G36*
G01*
X79372500Y-111780000D02*
X79027500Y-111780000D01*
G75*
G02*
X78880000Y-111632500I0J147500D01*
G01*
X78880000Y-111337500D01*
G75*
G02*
X79027500Y-111190000I147500J0D01*
G01*
X79372500Y-111190000D01*
G75*
G02*
X79520000Y-111337500I0J-147500D01*
G01*
X79520000Y-111632500D01*
G75*
G02*
X79372500Y-111780000I-147500J0D01*
G01*
G37*
D16*
X80000000Y-109400000D03*
X80000000Y-108000000D03*
D17*
G36*
X101750000Y-82400000D02*
G01*
X101750000Y-82050000D01*
X102250000Y-82050000D01*
X102250000Y-82400000D01*
X102100000Y-82550000D01*
X101900000Y-82550000D01*
X101750000Y-82400000D01*
G37*
G36*
X103250000Y-82400000D02*
G01*
X103250000Y-82050000D01*
X103750000Y-82050000D01*
X103750000Y-82400000D01*
X103600000Y-82550000D01*
X103400000Y-82550000D01*
X103250000Y-82400000D01*
G37*
D18*
X101000000Y-81650000D03*
X101500000Y-81650000D03*
X102000000Y-81650000D03*
X102500000Y-81650000D03*
X103000000Y-81650000D03*
D19*
X106075000Y-81650000D03*
D18*
X105500000Y-81650000D03*
X104500000Y-81650000D03*
X104000000Y-81650000D03*
X105000000Y-81650000D03*
X105750000Y-82950000D03*
X105000000Y-82950000D03*
X104250000Y-82950000D03*
X101250000Y-82950000D03*
X102000000Y-82950000D03*
X102750000Y-82950000D03*
X103500000Y-81650000D03*
X103500000Y-82950000D03*
D17*
G36*
X104750000Y-82400000D02*
G01*
X104750000Y-82050000D01*
X105250000Y-82050000D01*
X105250000Y-82400000D01*
X105100000Y-82550000D01*
X104900000Y-82550000D01*
X104750000Y-82400000D01*
G37*
G36*
X105250000Y-108600000D02*
G01*
X105250000Y-108950000D01*
X104750000Y-108950000D01*
X104750000Y-108600000D01*
X104900000Y-108450000D01*
X105100000Y-108450000D01*
X105250000Y-108600000D01*
G37*
G36*
X103750000Y-108600000D02*
G01*
X103750000Y-108950000D01*
X103250000Y-108950000D01*
X103250000Y-108600000D01*
X103400000Y-108450000D01*
X103600000Y-108450000D01*
X103750000Y-108600000D01*
G37*
D18*
X106000000Y-109350000D03*
X105500000Y-109350000D03*
X105000000Y-109350000D03*
X104500000Y-109350000D03*
X104000000Y-109350000D03*
D19*
X100925000Y-109350000D03*
D18*
X101500000Y-109350000D03*
X102500000Y-109350000D03*
X103000000Y-109350000D03*
X102000000Y-109350000D03*
X101250000Y-108050000D03*
X102000000Y-108050000D03*
X102750000Y-108050000D03*
X105750000Y-108050000D03*
X105000000Y-108050000D03*
X104250000Y-108050000D03*
X103500000Y-109350000D03*
X103500000Y-108050000D03*
D17*
G36*
X102250000Y-108600000D02*
G01*
X102250000Y-108950000D01*
X101750000Y-108950000D01*
X101750000Y-108600000D01*
X101900000Y-108450000D01*
X102100000Y-108450000D01*
X102250000Y-108600000D01*
G37*
G36*
G01*
X80027500Y-111190000D02*
X80372500Y-111190000D01*
G75*
G02*
X80520000Y-111337500I0J-147500D01*
G01*
X80520000Y-111632500D01*
G75*
G02*
X80372500Y-111780000I-147500J0D01*
G01*
X80027500Y-111780000D01*
G75*
G02*
X79880000Y-111632500I0J147500D01*
G01*
X79880000Y-111337500D01*
G75*
G02*
X80027500Y-111190000I147500J0D01*
G01*
G37*
G36*
G01*
X80027500Y-110220000D02*
X80372500Y-110220000D01*
G75*
G02*
X80520000Y-110367500I0J-147500D01*
G01*
X80520000Y-110662500D01*
G75*
G02*
X80372500Y-110810000I-147500J0D01*
G01*
X80027500Y-110810000D01*
G75*
G02*
X79880000Y-110662500I0J147500D01*
G01*
X79880000Y-110367500D01*
G75*
G02*
X80027500Y-110220000I147500J0D01*
G01*
G37*
G36*
G01*
X97425000Y-94727500D02*
X97425000Y-95072500D01*
G75*
G02*
X97277500Y-95220000I-147500J0D01*
G01*
X96982500Y-95220000D01*
G75*
G02*
X96835000Y-95072500I0J147500D01*
G01*
X96835000Y-94727500D01*
G75*
G02*
X96982500Y-94580000I147500J0D01*
G01*
X97277500Y-94580000D01*
G75*
G02*
X97425000Y-94727500I0J-147500D01*
G01*
G37*
G36*
G01*
X98395000Y-94727500D02*
X98395000Y-95072500D01*
G75*
G02*
X98247500Y-95220000I-147500J0D01*
G01*
X97952500Y-95220000D01*
G75*
G02*
X97805000Y-95072500I0J147500D01*
G01*
X97805000Y-94727500D01*
G75*
G02*
X97952500Y-94580000I147500J0D01*
G01*
X98247500Y-94580000D01*
G75*
G02*
X98395000Y-94727500I0J-147500D01*
G01*
G37*
G36*
G01*
X97425000Y-95927500D02*
X97425000Y-96272500D01*
G75*
G02*
X97277500Y-96420000I-147500J0D01*
G01*
X96982500Y-96420000D01*
G75*
G02*
X96835000Y-96272500I0J147500D01*
G01*
X96835000Y-95927500D01*
G75*
G02*
X96982500Y-95780000I147500J0D01*
G01*
X97277500Y-95780000D01*
G75*
G02*
X97425000Y-95927500I0J-147500D01*
G01*
G37*
G36*
G01*
X98395000Y-95927500D02*
X98395000Y-96272500D01*
G75*
G02*
X98247500Y-96420000I-147500J0D01*
G01*
X97952500Y-96420000D01*
G75*
G02*
X97805000Y-96272500I0J147500D01*
G01*
X97805000Y-95927500D01*
G75*
G02*
X97952500Y-95780000I147500J0D01*
G01*
X98247500Y-95780000D01*
G75*
G02*
X98395000Y-95927500I0J-147500D01*
G01*
G37*
D20*
X79700000Y-99500000D03*
X80500000Y-99500000D03*
X81300000Y-99500000D03*
X82100000Y-99500000D03*
X82900000Y-99500000D03*
X83700000Y-99500000D03*
X84500000Y-99500000D03*
X85300000Y-99500000D03*
X86100000Y-99500000D03*
X86900000Y-99500000D03*
X87700000Y-99500000D03*
X79700000Y-98700000D03*
X80500000Y-98700000D03*
X81300000Y-98700000D03*
X82100000Y-98700000D03*
X82900000Y-98700000D03*
X83700000Y-98700000D03*
X84500000Y-98700000D03*
X85300000Y-98700000D03*
X86100000Y-98700000D03*
X86900000Y-98700000D03*
X87700000Y-98700000D03*
X79700000Y-97900000D03*
X80500000Y-97900000D03*
X81300000Y-97900000D03*
X82100000Y-97900000D03*
X82900000Y-97900000D03*
X83700000Y-97900000D03*
X84500000Y-97900000D03*
X85300000Y-97900000D03*
X86100000Y-97900000D03*
X86900000Y-97900000D03*
X87700000Y-97900000D03*
X79700000Y-97100000D03*
X80500000Y-97100000D03*
X81300000Y-97100000D03*
X82100000Y-97100000D03*
X82900000Y-97100000D03*
X83700000Y-97100000D03*
X84500000Y-97100000D03*
X85300000Y-97100000D03*
X86100000Y-97100000D03*
X86900000Y-97100000D03*
X87700000Y-97100000D03*
X79700000Y-96300000D03*
X80500000Y-96300000D03*
X81300000Y-96300000D03*
X82100000Y-96300000D03*
X82900000Y-96300000D03*
X83700000Y-96300000D03*
X84500000Y-96300000D03*
X85300000Y-96300000D03*
X86100000Y-96300000D03*
X86900000Y-96300000D03*
X87700000Y-96300000D03*
X79700000Y-95500000D03*
X80500000Y-95500000D03*
X81300000Y-95500000D03*
X82100000Y-95500000D03*
X82900000Y-95500000D03*
X83700000Y-95500000D03*
X84500000Y-95500000D03*
X85300000Y-95500000D03*
X86100000Y-95500000D03*
X86900000Y-95500000D03*
X87700000Y-95500000D03*
X79700000Y-94700000D03*
X80500000Y-94700000D03*
X81300000Y-94700000D03*
X82100000Y-94700000D03*
X82900000Y-94700000D03*
X83700000Y-94700000D03*
X84500000Y-94700000D03*
X85300000Y-94700000D03*
X86100000Y-94700000D03*
X86900000Y-94700000D03*
X87700000Y-94700000D03*
X79700000Y-93900000D03*
X80500000Y-93900000D03*
X81300000Y-93900000D03*
X82100000Y-93900000D03*
X82900000Y-93900000D03*
X83700000Y-93900000D03*
X84500000Y-93900000D03*
X85300000Y-93900000D03*
X86100000Y-93900000D03*
X86900000Y-93900000D03*
X87700000Y-93900000D03*
X79700000Y-93100000D03*
X80500000Y-93100000D03*
X81300000Y-93100000D03*
X82100000Y-93100000D03*
X82900000Y-93100000D03*
X83700000Y-93100000D03*
X84500000Y-93100000D03*
X85300000Y-93100000D03*
X86100000Y-93100000D03*
X86900000Y-93100000D03*
X87700000Y-93100000D03*
X79700000Y-92300000D03*
X80500000Y-92300000D03*
X81300000Y-92300000D03*
X82100000Y-92300000D03*
X82900000Y-92300000D03*
X83700000Y-92300000D03*
X84500000Y-92300000D03*
X85300000Y-92300000D03*
X86100000Y-92300000D03*
X86900000Y-92300000D03*
X87700000Y-92300000D03*
X79700000Y-91500000D03*
X80500000Y-91500000D03*
X81300000Y-91500000D03*
X82100000Y-91500000D03*
X82900000Y-91500000D03*
X83700000Y-91500000D03*
X84500000Y-91500000D03*
X85300000Y-91500000D03*
X86100000Y-91500000D03*
X86900000Y-91500000D03*
X87700000Y-91500000D03*
G36*
G01*
X117905000Y-101472500D02*
X117905000Y-101127500D01*
G75*
G02*
X118052500Y-100980000I147500J0D01*
G01*
X118347500Y-100980000D01*
G75*
G02*
X118495000Y-101127500I0J-147500D01*
G01*
X118495000Y-101472500D01*
G75*
G02*
X118347500Y-101620000I-147500J0D01*
G01*
X118052500Y-101620000D01*
G75*
G02*
X117905000Y-101472500I0J147500D01*
G01*
G37*
G36*
G01*
X116935000Y-101472500D02*
X116935000Y-101127500D01*
G75*
G02*
X117082500Y-100980000I147500J0D01*
G01*
X117377500Y-100980000D01*
G75*
G02*
X117525000Y-101127500I0J-147500D01*
G01*
X117525000Y-101472500D01*
G75*
G02*
X117377500Y-101620000I-147500J0D01*
G01*
X117082500Y-101620000D01*
G75*
G02*
X116935000Y-101472500I0J147500D01*
G01*
G37*
D11*
X122100000Y-92400000D03*
X122100000Y-93350000D03*
X122100000Y-91450000D03*
X124300000Y-91450000D03*
X124300000Y-92400000D03*
X124300000Y-93350000D03*
G36*
G01*
X107377500Y-98990000D02*
X107722500Y-98990000D01*
G75*
G02*
X107870000Y-99137500I0J-147500D01*
G01*
X107870000Y-99432500D01*
G75*
G02*
X107722500Y-99580000I-147500J0D01*
G01*
X107377500Y-99580000D01*
G75*
G02*
X107230000Y-99432500I0J147500D01*
G01*
X107230000Y-99137500D01*
G75*
G02*
X107377500Y-98990000I147500J0D01*
G01*
G37*
G36*
G01*
X107377500Y-98020000D02*
X107722500Y-98020000D01*
G75*
G02*
X107870000Y-98167500I0J-147500D01*
G01*
X107870000Y-98462500D01*
G75*
G02*
X107722500Y-98610000I-147500J0D01*
G01*
X107377500Y-98610000D01*
G75*
G02*
X107230000Y-98462500I0J147500D01*
G01*
X107230000Y-98167500D01*
G75*
G02*
X107377500Y-98020000I147500J0D01*
G01*
G37*
G36*
G01*
X118022500Y-92010000D02*
X117677500Y-92010000D01*
G75*
G02*
X117530000Y-91862500I0J147500D01*
G01*
X117530000Y-91567500D01*
G75*
G02*
X117677500Y-91420000I147500J0D01*
G01*
X118022500Y-91420000D01*
G75*
G02*
X118170000Y-91567500I0J-147500D01*
G01*
X118170000Y-91862500D01*
G75*
G02*
X118022500Y-92010000I-147500J0D01*
G01*
G37*
G36*
G01*
X118022500Y-92980000D02*
X117677500Y-92980000D01*
G75*
G02*
X117530000Y-92832500I0J147500D01*
G01*
X117530000Y-92537500D01*
G75*
G02*
X117677500Y-92390000I147500J0D01*
G01*
X118022500Y-92390000D01*
G75*
G02*
X118170000Y-92537500I0J-147500D01*
G01*
X118170000Y-92832500D01*
G75*
G02*
X118022500Y-92980000I-147500J0D01*
G01*
G37*
G36*
G01*
X57890000Y-94372500D02*
X57890000Y-94027500D01*
G75*
G02*
X58037500Y-93880000I147500J0D01*
G01*
X58332500Y-93880000D01*
G75*
G02*
X58480000Y-94027500I0J-147500D01*
G01*
X58480000Y-94372500D01*
G75*
G02*
X58332500Y-94520000I-147500J0D01*
G01*
X58037500Y-94520000D01*
G75*
G02*
X57890000Y-94372500I0J147500D01*
G01*
G37*
G36*
G01*
X56920000Y-94372500D02*
X56920000Y-94027500D01*
G75*
G02*
X57067500Y-93880000I147500J0D01*
G01*
X57362500Y-93880000D01*
G75*
G02*
X57510000Y-94027500I0J-147500D01*
G01*
X57510000Y-94372500D01*
G75*
G02*
X57362500Y-94520000I-147500J0D01*
G01*
X57067500Y-94520000D01*
G75*
G02*
X56920000Y-94372500I0J147500D01*
G01*
G37*
D21*
X91750000Y-92750000D03*
X91750000Y-91750000D03*
X91750000Y-92250000D03*
X91750000Y-91250000D03*
X91750000Y-90750000D03*
X91750000Y-90250000D03*
X89950000Y-92750000D03*
X89950000Y-92250000D03*
X89950000Y-91750000D03*
X89950000Y-91250000D03*
X89950000Y-90750000D03*
X89950000Y-90250000D03*
X91750000Y-93250000D03*
X89950000Y-93250000D03*
X91750000Y-89750000D03*
X89950000Y-89750000D03*
G36*
G01*
X83710000Y-103377500D02*
X83710000Y-103722500D01*
G75*
G02*
X83562500Y-103870000I-147500J0D01*
G01*
X83267500Y-103870000D01*
G75*
G02*
X83120000Y-103722500I0J147500D01*
G01*
X83120000Y-103377500D01*
G75*
G02*
X83267500Y-103230000I147500J0D01*
G01*
X83562500Y-103230000D01*
G75*
G02*
X83710000Y-103377500I0J-147500D01*
G01*
G37*
G36*
G01*
X84680000Y-103377500D02*
X84680000Y-103722500D01*
G75*
G02*
X84532500Y-103870000I-147500J0D01*
G01*
X84237500Y-103870000D01*
G75*
G02*
X84090000Y-103722500I0J147500D01*
G01*
X84090000Y-103377500D01*
G75*
G02*
X84237500Y-103230000I147500J0D01*
G01*
X84532500Y-103230000D01*
G75*
G02*
X84680000Y-103377500I0J-147500D01*
G01*
G37*
G36*
G01*
X84875000Y-104612500D02*
X84875000Y-104487500D01*
G75*
G02*
X84937500Y-104425000I62500J0D01*
G01*
X85587500Y-104425000D01*
G75*
G02*
X85650000Y-104487500I0J-62500D01*
G01*
X85650000Y-104612500D01*
G75*
G02*
X85587500Y-104675000I-62500J0D01*
G01*
X84937500Y-104675000D01*
G75*
G02*
X84875000Y-104612500I0J62500D01*
G01*
G37*
G36*
G01*
X84875000Y-105112500D02*
X84875000Y-104987500D01*
G75*
G02*
X84937500Y-104925000I62500J0D01*
G01*
X85587500Y-104925000D01*
G75*
G02*
X85650000Y-104987500I0J-62500D01*
G01*
X85650000Y-105112500D01*
G75*
G02*
X85587500Y-105175000I-62500J0D01*
G01*
X84937500Y-105175000D01*
G75*
G02*
X84875000Y-105112500I0J62500D01*
G01*
G37*
G36*
G01*
X84875000Y-105612500D02*
X84875000Y-105487500D01*
G75*
G02*
X84937500Y-105425000I62500J0D01*
G01*
X85587500Y-105425000D01*
G75*
G02*
X85650000Y-105487500I0J-62500D01*
G01*
X85650000Y-105612500D01*
G75*
G02*
X85587500Y-105675000I-62500J0D01*
G01*
X84937500Y-105675000D01*
G75*
G02*
X84875000Y-105612500I0J62500D01*
G01*
G37*
G36*
G01*
X84875000Y-106112500D02*
X84875000Y-105987500D01*
G75*
G02*
X84937500Y-105925000I62500J0D01*
G01*
X85587500Y-105925000D01*
G75*
G02*
X85650000Y-105987500I0J-62500D01*
G01*
X85650000Y-106112500D01*
G75*
G02*
X85587500Y-106175000I-62500J0D01*
G01*
X84937500Y-106175000D01*
G75*
G02*
X84875000Y-106112500I0J62500D01*
G01*
G37*
G36*
G01*
X81950000Y-106112500D02*
X81950000Y-105987500D01*
G75*
G02*
X82012500Y-105925000I62500J0D01*
G01*
X82662500Y-105925000D01*
G75*
G02*
X82725000Y-105987500I0J-62500D01*
G01*
X82725000Y-106112500D01*
G75*
G02*
X82662500Y-106175000I-62500J0D01*
G01*
X82012500Y-106175000D01*
G75*
G02*
X81950000Y-106112500I0J62500D01*
G01*
G37*
G36*
G01*
X81950000Y-105612500D02*
X81950000Y-105487500D01*
G75*
G02*
X82012500Y-105425000I62500J0D01*
G01*
X82662500Y-105425000D01*
G75*
G02*
X82725000Y-105487500I0J-62500D01*
G01*
X82725000Y-105612500D01*
G75*
G02*
X82662500Y-105675000I-62500J0D01*
G01*
X82012500Y-105675000D01*
G75*
G02*
X81950000Y-105612500I0J62500D01*
G01*
G37*
G36*
G01*
X81950000Y-105112500D02*
X81950000Y-104987500D01*
G75*
G02*
X82012500Y-104925000I62500J0D01*
G01*
X82662500Y-104925000D01*
G75*
G02*
X82725000Y-104987500I0J-62500D01*
G01*
X82725000Y-105112500D01*
G75*
G02*
X82662500Y-105175000I-62500J0D01*
G01*
X82012500Y-105175000D01*
G75*
G02*
X81950000Y-105112500I0J62500D01*
G01*
G37*
G36*
G01*
X81950000Y-104612500D02*
X81950000Y-104487500D01*
G75*
G02*
X82012500Y-104425000I62500J0D01*
G01*
X82662500Y-104425000D01*
G75*
G02*
X82725000Y-104487500I0J-62500D01*
G01*
X82725000Y-104612500D01*
G75*
G02*
X82662500Y-104675000I-62500J0D01*
G01*
X82012500Y-104675000D01*
G75*
G02*
X81950000Y-104612500I0J62500D01*
G01*
G37*
G36*
G01*
X83865000Y-105800000D02*
X83865000Y-105500000D01*
G75*
G02*
X83995000Y-105370000I130000J0D01*
G01*
X84255000Y-105370000D01*
G75*
G02*
X84385000Y-105500000I0J-130000D01*
G01*
X84385000Y-105800000D01*
G75*
G02*
X84255000Y-105930000I-130000J0D01*
G01*
X83995000Y-105930000D01*
G75*
G02*
X83865000Y-105800000I0J130000D01*
G01*
G37*
G36*
G01*
X83865000Y-105100000D02*
X83865000Y-104800000D01*
G75*
G02*
X83995000Y-104670000I130000J0D01*
G01*
X84255000Y-104670000D01*
G75*
G02*
X84385000Y-104800000I0J-130000D01*
G01*
X84385000Y-105100000D01*
G75*
G02*
X84255000Y-105230000I-130000J0D01*
G01*
X83995000Y-105230000D01*
G75*
G02*
X83865000Y-105100000I0J130000D01*
G01*
G37*
G36*
G01*
X83215000Y-105800000D02*
X83215000Y-105500000D01*
G75*
G02*
X83345000Y-105370000I130000J0D01*
G01*
X83605000Y-105370000D01*
G75*
G02*
X83735000Y-105500000I0J-130000D01*
G01*
X83735000Y-105800000D01*
G75*
G02*
X83605000Y-105930000I-130000J0D01*
G01*
X83345000Y-105930000D01*
G75*
G02*
X83215000Y-105800000I0J130000D01*
G01*
G37*
G36*
G01*
X83215000Y-105100000D02*
X83215000Y-104800000D01*
G75*
G02*
X83345000Y-104670000I130000J0D01*
G01*
X83605000Y-104670000D01*
G75*
G02*
X83735000Y-104800000I0J-130000D01*
G01*
X83735000Y-105100000D01*
G75*
G02*
X83605000Y-105230000I-130000J0D01*
G01*
X83345000Y-105230000D01*
G75*
G02*
X83215000Y-105100000I0J130000D01*
G01*
G37*
D22*
X115650000Y-89925000D03*
X115650000Y-90575000D03*
X115650000Y-91225000D03*
X115650000Y-91875000D03*
X115650000Y-92525000D03*
X115650000Y-93175000D03*
X115650000Y-93825000D03*
X115650000Y-94475000D03*
X109750000Y-94475000D03*
X109750000Y-93825000D03*
X109750000Y-93175000D03*
X109750000Y-92525000D03*
X109750000Y-91875000D03*
X109750000Y-91225000D03*
X109750000Y-90575000D03*
X109750000Y-89925000D03*
X109750000Y-101075000D03*
X109750000Y-100425000D03*
X109750000Y-99775000D03*
X109750000Y-99125000D03*
X109750000Y-98475000D03*
X109750000Y-97825000D03*
X109750000Y-97175000D03*
X109750000Y-96525000D03*
X115650000Y-96525000D03*
X115650000Y-97175000D03*
X115650000Y-97825000D03*
X115650000Y-98475000D03*
X115650000Y-99125000D03*
X115650000Y-99775000D03*
X115650000Y-100425000D03*
X115650000Y-101075000D03*
G36*
G01*
X125772500Y-88910000D02*
X125427500Y-88910000D01*
G75*
G02*
X125280000Y-88762500I0J147500D01*
G01*
X125280000Y-88467500D01*
G75*
G02*
X125427500Y-88320000I147500J0D01*
G01*
X125772500Y-88320000D01*
G75*
G02*
X125920000Y-88467500I0J-147500D01*
G01*
X125920000Y-88762500D01*
G75*
G02*
X125772500Y-88910000I-147500J0D01*
G01*
G37*
G36*
G01*
X125772500Y-89880000D02*
X125427500Y-89880000D01*
G75*
G02*
X125280000Y-89732500I0J147500D01*
G01*
X125280000Y-89437500D01*
G75*
G02*
X125427500Y-89290000I147500J0D01*
G01*
X125772500Y-89290000D01*
G75*
G02*
X125920000Y-89437500I0J-147500D01*
G01*
X125920000Y-89732500D01*
G75*
G02*
X125772500Y-89880000I-147500J0D01*
G01*
G37*
G36*
G01*
X119772500Y-82310000D02*
X119427500Y-82310000D01*
G75*
G02*
X119280000Y-82162500I0J147500D01*
G01*
X119280000Y-81867500D01*
G75*
G02*
X119427500Y-81720000I147500J0D01*
G01*
X119772500Y-81720000D01*
G75*
G02*
X119920000Y-81867500I0J-147500D01*
G01*
X119920000Y-82162500D01*
G75*
G02*
X119772500Y-82310000I-147500J0D01*
G01*
G37*
G36*
G01*
X119772500Y-83280000D02*
X119427500Y-83280000D01*
G75*
G02*
X119280000Y-83132500I0J147500D01*
G01*
X119280000Y-82837500D01*
G75*
G02*
X119427500Y-82690000I147500J0D01*
G01*
X119772500Y-82690000D01*
G75*
G02*
X119920000Y-82837500I0J-147500D01*
G01*
X119920000Y-83132500D01*
G75*
G02*
X119772500Y-83280000I-147500J0D01*
G01*
G37*
G36*
G01*
X118427500Y-82690000D02*
X118772500Y-82690000D01*
G75*
G02*
X118920000Y-82837500I0J-147500D01*
G01*
X118920000Y-83132500D01*
G75*
G02*
X118772500Y-83280000I-147500J0D01*
G01*
X118427500Y-83280000D01*
G75*
G02*
X118280000Y-83132500I0J147500D01*
G01*
X118280000Y-82837500D01*
G75*
G02*
X118427500Y-82690000I147500J0D01*
G01*
G37*
G36*
G01*
X118427500Y-81720000D02*
X118772500Y-81720000D01*
G75*
G02*
X118920000Y-81867500I0J-147500D01*
G01*
X118920000Y-82162500D01*
G75*
G02*
X118772500Y-82310000I-147500J0D01*
G01*
X118427500Y-82310000D01*
G75*
G02*
X118280000Y-82162500I0J147500D01*
G01*
X118280000Y-81867500D01*
G75*
G02*
X118427500Y-81720000I147500J0D01*
G01*
G37*
G36*
G01*
X120427500Y-82690000D02*
X120772500Y-82690000D01*
G75*
G02*
X120920000Y-82837500I0J-147500D01*
G01*
X120920000Y-83132500D01*
G75*
G02*
X120772500Y-83280000I-147500J0D01*
G01*
X120427500Y-83280000D01*
G75*
G02*
X120280000Y-83132500I0J147500D01*
G01*
X120280000Y-82837500D01*
G75*
G02*
X120427500Y-82690000I147500J0D01*
G01*
G37*
G36*
G01*
X120427500Y-81720000D02*
X120772500Y-81720000D01*
G75*
G02*
X120920000Y-81867500I0J-147500D01*
G01*
X120920000Y-82162500D01*
G75*
G02*
X120772500Y-82310000I-147500J0D01*
G01*
X120427500Y-82310000D01*
G75*
G02*
X120280000Y-82162500I0J147500D01*
G01*
X120280000Y-81867500D01*
G75*
G02*
X120427500Y-81720000I147500J0D01*
G01*
G37*
G36*
G01*
X125710000Y-80527500D02*
X125710000Y-80872500D01*
G75*
G02*
X125562500Y-81020000I-147500J0D01*
G01*
X125267500Y-81020000D01*
G75*
G02*
X125120000Y-80872500I0J147500D01*
G01*
X125120000Y-80527500D01*
G75*
G02*
X125267500Y-80380000I147500J0D01*
G01*
X125562500Y-80380000D01*
G75*
G02*
X125710000Y-80527500I0J-147500D01*
G01*
G37*
G36*
G01*
X126680000Y-80527500D02*
X126680000Y-80872500D01*
G75*
G02*
X126532500Y-81020000I-147500J0D01*
G01*
X126237500Y-81020000D01*
G75*
G02*
X126090000Y-80872500I0J147500D01*
G01*
X126090000Y-80527500D01*
G75*
G02*
X126237500Y-80380000I147500J0D01*
G01*
X126532500Y-80380000D01*
G75*
G02*
X126680000Y-80527500I0J-147500D01*
G01*
G37*
G36*
G01*
X107510000Y-89527500D02*
X107510000Y-89872500D01*
G75*
G02*
X107362500Y-90020000I-147500J0D01*
G01*
X107067500Y-90020000D01*
G75*
G02*
X106920000Y-89872500I0J147500D01*
G01*
X106920000Y-89527500D01*
G75*
G02*
X107067500Y-89380000I147500J0D01*
G01*
X107362500Y-89380000D01*
G75*
G02*
X107510000Y-89527500I0J-147500D01*
G01*
G37*
G36*
G01*
X108480000Y-89527500D02*
X108480000Y-89872500D01*
G75*
G02*
X108332500Y-90020000I-147500J0D01*
G01*
X108037500Y-90020000D01*
G75*
G02*
X107890000Y-89872500I0J147500D01*
G01*
X107890000Y-89527500D01*
G75*
G02*
X108037500Y-89380000I147500J0D01*
G01*
X108332500Y-89380000D01*
G75*
G02*
X108480000Y-89527500I0J-147500D01*
G01*
G37*
G36*
G01*
X118022500Y-98610000D02*
X117677500Y-98610000D01*
G75*
G02*
X117530000Y-98462500I0J147500D01*
G01*
X117530000Y-98167500D01*
G75*
G02*
X117677500Y-98020000I147500J0D01*
G01*
X118022500Y-98020000D01*
G75*
G02*
X118170000Y-98167500I0J-147500D01*
G01*
X118170000Y-98462500D01*
G75*
G02*
X118022500Y-98610000I-147500J0D01*
G01*
G37*
G36*
G01*
X118022500Y-99580000D02*
X117677500Y-99580000D01*
G75*
G02*
X117530000Y-99432500I0J147500D01*
G01*
X117530000Y-99137500D01*
G75*
G02*
X117677500Y-98990000I147500J0D01*
G01*
X118022500Y-98990000D01*
G75*
G02*
X118170000Y-99137500I0J-147500D01*
G01*
X118170000Y-99432500D01*
G75*
G02*
X118022500Y-99580000I-147500J0D01*
G01*
G37*
G36*
G01*
X107377500Y-92390000D02*
X107722500Y-92390000D01*
G75*
G02*
X107870000Y-92537500I0J-147500D01*
G01*
X107870000Y-92832500D01*
G75*
G02*
X107722500Y-92980000I-147500J0D01*
G01*
X107377500Y-92980000D01*
G75*
G02*
X107230000Y-92832500I0J147500D01*
G01*
X107230000Y-92537500D01*
G75*
G02*
X107377500Y-92390000I147500J0D01*
G01*
G37*
G36*
G01*
X107377500Y-91420000D02*
X107722500Y-91420000D01*
G75*
G02*
X107870000Y-91567500I0J-147500D01*
G01*
X107870000Y-91862500D01*
G75*
G02*
X107722500Y-92010000I-147500J0D01*
G01*
X107377500Y-92010000D01*
G75*
G02*
X107230000Y-91862500I0J147500D01*
G01*
X107230000Y-91567500D01*
G75*
G02*
X107377500Y-91420000I147500J0D01*
G01*
G37*
G36*
G01*
X126290000Y-87772500D02*
X126290000Y-87427500D01*
G75*
G02*
X126437500Y-87280000I147500J0D01*
G01*
X126732500Y-87280000D01*
G75*
G02*
X126880000Y-87427500I0J-147500D01*
G01*
X126880000Y-87772500D01*
G75*
G02*
X126732500Y-87920000I-147500J0D01*
G01*
X126437500Y-87920000D01*
G75*
G02*
X126290000Y-87772500I0J147500D01*
G01*
G37*
G36*
G01*
X125320000Y-87772500D02*
X125320000Y-87427500D01*
G75*
G02*
X125467500Y-87280000I147500J0D01*
G01*
X125762500Y-87280000D01*
G75*
G02*
X125910000Y-87427500I0J-147500D01*
G01*
X125910000Y-87772500D01*
G75*
G02*
X125762500Y-87920000I-147500J0D01*
G01*
X125467500Y-87920000D01*
G75*
G02*
X125320000Y-87772500I0J147500D01*
G01*
G37*
D15*
X100850000Y-88100000D03*
X100850000Y-88600000D03*
X99350000Y-88100000D03*
X100850000Y-87600000D03*
X99350000Y-88600000D03*
X99350000Y-87600000D03*
X95950000Y-85700000D03*
X95950000Y-86200000D03*
X94450000Y-85700000D03*
X95950000Y-85200000D03*
X94450000Y-86200000D03*
X94450000Y-85200000D03*
X95950000Y-88100000D03*
X95950000Y-88600000D03*
X94450000Y-88100000D03*
X95950000Y-87600000D03*
X94450000Y-88600000D03*
X94450000Y-87600000D03*
X95950000Y-90500000D03*
X95950000Y-91000000D03*
X94450000Y-90500000D03*
X95950000Y-90000000D03*
X94450000Y-91000000D03*
X94450000Y-90000000D03*
X95950000Y-92900000D03*
X95950000Y-93400000D03*
X94450000Y-92900000D03*
X95950000Y-92400000D03*
X94450000Y-93400000D03*
X94450000Y-92400000D03*
X100850000Y-85700000D03*
X100850000Y-86200000D03*
X99350000Y-85700000D03*
X100850000Y-85200000D03*
X99350000Y-86200000D03*
X99350000Y-85200000D03*
X100850000Y-90500000D03*
X100850000Y-91000000D03*
X99350000Y-90500000D03*
X100850000Y-90000000D03*
X99350000Y-91000000D03*
X99350000Y-90000000D03*
G36*
G01*
X107510000Y-101127500D02*
X107510000Y-101472500D01*
G75*
G02*
X107362500Y-101620000I-147500J0D01*
G01*
X107067500Y-101620000D01*
G75*
G02*
X106920000Y-101472500I0J147500D01*
G01*
X106920000Y-101127500D01*
G75*
G02*
X107067500Y-100980000I147500J0D01*
G01*
X107362500Y-100980000D01*
G75*
G02*
X107510000Y-101127500I0J-147500D01*
G01*
G37*
G36*
G01*
X108480000Y-101127500D02*
X108480000Y-101472500D01*
G75*
G02*
X108332500Y-101620000I-147500J0D01*
G01*
X108037500Y-101620000D01*
G75*
G02*
X107890000Y-101472500I0J147500D01*
G01*
X107890000Y-101127500D01*
G75*
G02*
X108037500Y-100980000I147500J0D01*
G01*
X108332500Y-100980000D01*
G75*
G02*
X108480000Y-101127500I0J-147500D01*
G01*
G37*
G36*
G01*
X119910000Y-105227500D02*
X119910000Y-105572500D01*
G75*
G02*
X119762500Y-105720000I-147500J0D01*
G01*
X119467500Y-105720000D01*
G75*
G02*
X119320000Y-105572500I0J147500D01*
G01*
X119320000Y-105227500D01*
G75*
G02*
X119467500Y-105080000I147500J0D01*
G01*
X119762500Y-105080000D01*
G75*
G02*
X119910000Y-105227500I0J-147500D01*
G01*
G37*
G36*
G01*
X120880000Y-105227500D02*
X120880000Y-105572500D01*
G75*
G02*
X120732500Y-105720000I-147500J0D01*
G01*
X120437500Y-105720000D01*
G75*
G02*
X120290000Y-105572500I0J147500D01*
G01*
X120290000Y-105227500D01*
G75*
G02*
X120437500Y-105080000I147500J0D01*
G01*
X120732500Y-105080000D01*
G75*
G02*
X120880000Y-105227500I0J-147500D01*
G01*
G37*
G36*
G01*
X117890000Y-89872500D02*
X117890000Y-89527500D01*
G75*
G02*
X118037500Y-89380000I147500J0D01*
G01*
X118332500Y-89380000D01*
G75*
G02*
X118480000Y-89527500I0J-147500D01*
G01*
X118480000Y-89872500D01*
G75*
G02*
X118332500Y-90020000I-147500J0D01*
G01*
X118037500Y-90020000D01*
G75*
G02*
X117890000Y-89872500I0J147500D01*
G01*
G37*
G36*
G01*
X116920000Y-89872500D02*
X116920000Y-89527500D01*
G75*
G02*
X117067500Y-89380000I147500J0D01*
G01*
X117362500Y-89380000D01*
G75*
G02*
X117510000Y-89527500I0J-147500D01*
G01*
X117510000Y-89872500D01*
G75*
G02*
X117362500Y-90020000I-147500J0D01*
G01*
X117067500Y-90020000D01*
G75*
G02*
X116920000Y-89872500I0J147500D01*
G01*
G37*
G36*
G01*
X119910000Y-85427500D02*
X119910000Y-85772500D01*
G75*
G02*
X119762500Y-85920000I-147500J0D01*
G01*
X119467500Y-85920000D01*
G75*
G02*
X119320000Y-85772500I0J147500D01*
G01*
X119320000Y-85427500D01*
G75*
G02*
X119467500Y-85280000I147500J0D01*
G01*
X119762500Y-85280000D01*
G75*
G02*
X119910000Y-85427500I0J-147500D01*
G01*
G37*
G36*
G01*
X120880000Y-85427500D02*
X120880000Y-85772500D01*
G75*
G02*
X120732500Y-85920000I-147500J0D01*
G01*
X120437500Y-85920000D01*
G75*
G02*
X120290000Y-85772500I0J147500D01*
G01*
X120290000Y-85427500D01*
G75*
G02*
X120437500Y-85280000I147500J0D01*
G01*
X120732500Y-85280000D01*
G75*
G02*
X120880000Y-85427500I0J-147500D01*
G01*
G37*
G36*
G01*
X126050000Y-85662500D02*
X126050000Y-86137500D01*
G75*
G02*
X125812500Y-86375000I-237500J0D01*
G01*
X125237500Y-86375000D01*
G75*
G02*
X125000000Y-86137500I0J237500D01*
G01*
X125000000Y-85662500D01*
G75*
G02*
X125237500Y-85425000I237500J0D01*
G01*
X125812500Y-85425000D01*
G75*
G02*
X126050000Y-85662500I0J-237500D01*
G01*
G37*
G36*
G01*
X127800000Y-85662500D02*
X127800000Y-86137500D01*
G75*
G02*
X127562500Y-86375000I-237500J0D01*
G01*
X126987500Y-86375000D01*
G75*
G02*
X126750000Y-86137500I0J237500D01*
G01*
X126750000Y-85662500D01*
G75*
G02*
X126987500Y-85425000I237500J0D01*
G01*
X127562500Y-85425000D01*
G75*
G02*
X127800000Y-85662500I0J-237500D01*
G01*
G37*
G36*
G01*
X123350000Y-86137500D02*
X123350000Y-85662500D01*
G75*
G02*
X123587500Y-85425000I237500J0D01*
G01*
X124162500Y-85425000D01*
G75*
G02*
X124400000Y-85662500I0J-237500D01*
G01*
X124400000Y-86137500D01*
G75*
G02*
X124162500Y-86375000I-237500J0D01*
G01*
X123587500Y-86375000D01*
G75*
G02*
X123350000Y-86137500I0J237500D01*
G01*
G37*
G36*
G01*
X121600000Y-86137500D02*
X121600000Y-85662500D01*
G75*
G02*
X121837500Y-85425000I237500J0D01*
G01*
X122412500Y-85425000D01*
G75*
G02*
X122650000Y-85662500I0J-237500D01*
G01*
X122650000Y-86137500D01*
G75*
G02*
X122412500Y-86375000I-237500J0D01*
G01*
X121837500Y-86375000D01*
G75*
G02*
X121600000Y-86137500I0J237500D01*
G01*
G37*
D23*
X113450000Y-105100000D03*
X112450000Y-105100000D03*
X112950000Y-105100000D03*
X111950000Y-105100000D03*
X111450000Y-105100000D03*
X110950000Y-105100000D03*
X113450000Y-106900000D03*
X112950000Y-106900000D03*
X112450000Y-106900000D03*
X111950000Y-106900000D03*
X111450000Y-106900000D03*
X110950000Y-106900000D03*
X113950000Y-105100000D03*
X113950000Y-106900000D03*
X110450000Y-105100000D03*
X110450000Y-106900000D03*
G36*
G01*
X123350000Y-105337500D02*
X123350000Y-104862500D01*
G75*
G02*
X123587500Y-104625000I237500J0D01*
G01*
X124162500Y-104625000D01*
G75*
G02*
X124400000Y-104862500I0J-237500D01*
G01*
X124400000Y-105337500D01*
G75*
G02*
X124162500Y-105575000I-237500J0D01*
G01*
X123587500Y-105575000D01*
G75*
G02*
X123350000Y-105337500I0J237500D01*
G01*
G37*
G36*
G01*
X121600000Y-105337500D02*
X121600000Y-104862500D01*
G75*
G02*
X121837500Y-104625000I237500J0D01*
G01*
X122412500Y-104625000D01*
G75*
G02*
X122650000Y-104862500I0J-237500D01*
G01*
X122650000Y-105337500D01*
G75*
G02*
X122412500Y-105575000I-237500J0D01*
G01*
X121837500Y-105575000D01*
G75*
G02*
X121600000Y-105337500I0J237500D01*
G01*
G37*
D24*
X126700000Y-82125000D03*
X126700000Y-82775000D03*
X126700000Y-83425000D03*
X126700000Y-84075000D03*
X122300000Y-84075000D03*
X122300000Y-83425000D03*
X122300000Y-82775000D03*
X122300000Y-82125000D03*
D23*
X110950000Y-85900000D03*
X111950000Y-85900000D03*
X111450000Y-85900000D03*
X112450000Y-85900000D03*
X112950000Y-85900000D03*
X113450000Y-85900000D03*
X110950000Y-84100000D03*
X111450000Y-84100000D03*
X111950000Y-84100000D03*
X112450000Y-84100000D03*
X112950000Y-84100000D03*
X113450000Y-84100000D03*
X110450000Y-85900000D03*
X110450000Y-84100000D03*
X113950000Y-85900000D03*
X113950000Y-84100000D03*
X105750000Y-84700000D03*
X104750000Y-84700000D03*
X105250000Y-84700000D03*
X104250000Y-84700000D03*
X103750000Y-84700000D03*
X103250000Y-84700000D03*
X105750000Y-86500000D03*
X105250000Y-86500000D03*
X104750000Y-86500000D03*
X104250000Y-86500000D03*
X103750000Y-86500000D03*
X103250000Y-86500000D03*
X106250000Y-84700000D03*
X106250000Y-86500000D03*
X102750000Y-84700000D03*
X102750000Y-86500000D03*
G36*
G01*
X60010000Y-87827500D02*
X60010000Y-88172500D01*
G75*
G02*
X59862500Y-88320000I-147500J0D01*
G01*
X59567500Y-88320000D01*
G75*
G02*
X59420000Y-88172500I0J147500D01*
G01*
X59420000Y-87827500D01*
G75*
G02*
X59567500Y-87680000I147500J0D01*
G01*
X59862500Y-87680000D01*
G75*
G02*
X60010000Y-87827500I0J-147500D01*
G01*
G37*
G36*
G01*
X60980000Y-87827500D02*
X60980000Y-88172500D01*
G75*
G02*
X60832500Y-88320000I-147500J0D01*
G01*
X60537500Y-88320000D01*
G75*
G02*
X60390000Y-88172500I0J147500D01*
G01*
X60390000Y-87827500D01*
G75*
G02*
X60537500Y-87680000I147500J0D01*
G01*
X60832500Y-87680000D01*
G75*
G02*
X60980000Y-87827500I0J-147500D01*
G01*
G37*
G36*
G01*
X60010000Y-82627500D02*
X60010000Y-82972500D01*
G75*
G02*
X59862500Y-83120000I-147500J0D01*
G01*
X59567500Y-83120000D01*
G75*
G02*
X59420000Y-82972500I0J147500D01*
G01*
X59420000Y-82627500D01*
G75*
G02*
X59567500Y-82480000I147500J0D01*
G01*
X59862500Y-82480000D01*
G75*
G02*
X60010000Y-82627500I0J-147500D01*
G01*
G37*
G36*
G01*
X60980000Y-82627500D02*
X60980000Y-82972500D01*
G75*
G02*
X60832500Y-83120000I-147500J0D01*
G01*
X60537500Y-83120000D01*
G75*
G02*
X60390000Y-82972500I0J147500D01*
G01*
X60390000Y-82627500D01*
G75*
G02*
X60537500Y-82480000I147500J0D01*
G01*
X60832500Y-82480000D01*
G75*
G02*
X60980000Y-82627500I0J-147500D01*
G01*
G37*
G36*
G01*
X60010000Y-86527500D02*
X60010000Y-86872500D01*
G75*
G02*
X59862500Y-87020000I-147500J0D01*
G01*
X59567500Y-87020000D01*
G75*
G02*
X59420000Y-86872500I0J147500D01*
G01*
X59420000Y-86527500D01*
G75*
G02*
X59567500Y-86380000I147500J0D01*
G01*
X59862500Y-86380000D01*
G75*
G02*
X60010000Y-86527500I0J-147500D01*
G01*
G37*
G36*
G01*
X60980000Y-86527500D02*
X60980000Y-86872500D01*
G75*
G02*
X60832500Y-87020000I-147500J0D01*
G01*
X60537500Y-87020000D01*
G75*
G02*
X60390000Y-86872500I0J147500D01*
G01*
X60390000Y-86527500D01*
G75*
G02*
X60537500Y-86380000I147500J0D01*
G01*
X60832500Y-86380000D01*
G75*
G02*
X60980000Y-86527500I0J-147500D01*
G01*
G37*
G36*
G01*
X60010000Y-85227500D02*
X60010000Y-85572500D01*
G75*
G02*
X59862500Y-85720000I-147500J0D01*
G01*
X59567500Y-85720000D01*
G75*
G02*
X59420000Y-85572500I0J147500D01*
G01*
X59420000Y-85227500D01*
G75*
G02*
X59567500Y-85080000I147500J0D01*
G01*
X59862500Y-85080000D01*
G75*
G02*
X60010000Y-85227500I0J-147500D01*
G01*
G37*
G36*
G01*
X60980000Y-85227500D02*
X60980000Y-85572500D01*
G75*
G02*
X60832500Y-85720000I-147500J0D01*
G01*
X60537500Y-85720000D01*
G75*
G02*
X60390000Y-85572500I0J147500D01*
G01*
X60390000Y-85227500D01*
G75*
G02*
X60537500Y-85080000I147500J0D01*
G01*
X60832500Y-85080000D01*
G75*
G02*
X60980000Y-85227500I0J-147500D01*
G01*
G37*
G36*
G01*
X60010000Y-83927500D02*
X60010000Y-84272500D01*
G75*
G02*
X59862500Y-84420000I-147500J0D01*
G01*
X59567500Y-84420000D01*
G75*
G02*
X59420000Y-84272500I0J147500D01*
G01*
X59420000Y-83927500D01*
G75*
G02*
X59567500Y-83780000I147500J0D01*
G01*
X59862500Y-83780000D01*
G75*
G02*
X60010000Y-83927500I0J-147500D01*
G01*
G37*
G36*
G01*
X60980000Y-83927500D02*
X60980000Y-84272500D01*
G75*
G02*
X60832500Y-84420000I-147500J0D01*
G01*
X60537500Y-84420000D01*
G75*
G02*
X60390000Y-84272500I0J147500D01*
G01*
X60390000Y-83927500D01*
G75*
G02*
X60537500Y-83780000I147500J0D01*
G01*
X60832500Y-83780000D01*
G75*
G02*
X60980000Y-83927500I0J-147500D01*
G01*
G37*
D25*
X85835000Y-74550000D03*
X85835000Y-78450000D03*
X84565000Y-74550000D03*
X84565000Y-78450000D03*
X83295000Y-74550000D03*
X83295000Y-78450000D03*
X82025000Y-74550000D03*
X82025000Y-78450000D03*
X80755000Y-74550000D03*
X80755000Y-78450000D03*
X79485000Y-74550000D03*
X79485000Y-78450000D03*
X78215000Y-74550000D03*
X78215000Y-78450000D03*
X76945000Y-74550000D03*
X76945000Y-78450000D03*
X75675000Y-74550000D03*
X75675000Y-78450000D03*
X74405000Y-74550000D03*
X74405000Y-78450000D03*
X73135000Y-74550000D03*
X73135000Y-78450000D03*
X71865000Y-74550000D03*
X71865000Y-78450000D03*
X70595000Y-74550000D03*
X70595000Y-78450000D03*
X69325000Y-74550000D03*
X69325000Y-78450000D03*
X68055000Y-74550000D03*
X68055000Y-78450000D03*
X66785000Y-74550000D03*
X66785000Y-78450000D03*
X65515000Y-74550000D03*
X65515000Y-78450000D03*
X64245000Y-74550000D03*
X64245000Y-78450000D03*
X62975000Y-74550000D03*
X62975000Y-78450000D03*
X61705000Y-74550000D03*
X61705000Y-78450000D03*
X60435000Y-74550000D03*
X60435000Y-78450000D03*
X59165000Y-74550000D03*
X59165000Y-78450000D03*
D15*
X100850000Y-102900000D03*
X100850000Y-103400000D03*
X99350000Y-102900000D03*
X100850000Y-102400000D03*
X99350000Y-103400000D03*
X99350000Y-102400000D03*
X100850000Y-105300000D03*
X100850000Y-105800000D03*
X99350000Y-105300000D03*
X100850000Y-104800000D03*
X99350000Y-105800000D03*
X99350000Y-104800000D03*
X100850000Y-100500000D03*
X100850000Y-101000000D03*
X99350000Y-100500000D03*
X100850000Y-100000000D03*
X99350000Y-101000000D03*
X99350000Y-100000000D03*
X100850000Y-98100000D03*
X100850000Y-98600000D03*
X99350000Y-98100000D03*
X100850000Y-97600000D03*
X99350000Y-98600000D03*
X99350000Y-97600000D03*
X95950000Y-105300000D03*
X95950000Y-105800000D03*
X94450000Y-105300000D03*
X95950000Y-104800000D03*
X94450000Y-105800000D03*
X94450000Y-104800000D03*
X95950000Y-102900000D03*
X95950000Y-103400000D03*
X94450000Y-102900000D03*
X95950000Y-102400000D03*
X94450000Y-103400000D03*
X94450000Y-102400000D03*
X95950000Y-100500000D03*
X95950000Y-101000000D03*
X94450000Y-100500000D03*
X95950000Y-100000000D03*
X94450000Y-101000000D03*
X94450000Y-100000000D03*
X100850000Y-92900000D03*
X100850000Y-93400000D03*
X99350000Y-92900000D03*
X100850000Y-92400000D03*
X99350000Y-93400000D03*
X99350000Y-92400000D03*
X95950000Y-98100000D03*
X95950000Y-98600000D03*
X94450000Y-98100000D03*
X95950000Y-97600000D03*
X94450000Y-98600000D03*
X94450000Y-97600000D03*
G36*
G01*
X61790000Y-95172500D02*
X61790000Y-94827500D01*
G75*
G02*
X61937500Y-94680000I147500J0D01*
G01*
X62232500Y-94680000D01*
G75*
G02*
X62380000Y-94827500I0J-147500D01*
G01*
X62380000Y-95172500D01*
G75*
G02*
X62232500Y-95320000I-147500J0D01*
G01*
X61937500Y-95320000D01*
G75*
G02*
X61790000Y-95172500I0J147500D01*
G01*
G37*
G36*
G01*
X60820000Y-95172500D02*
X60820000Y-94827500D01*
G75*
G02*
X60967500Y-94680000I147500J0D01*
G01*
X61262500Y-94680000D01*
G75*
G02*
X61410000Y-94827500I0J-147500D01*
G01*
X61410000Y-95172500D01*
G75*
G02*
X61262500Y-95320000I-147500J0D01*
G01*
X60967500Y-95320000D01*
G75*
G02*
X60820000Y-95172500I0J147500D01*
G01*
G37*
G36*
G01*
X61410000Y-90027500D02*
X61410000Y-90372500D01*
G75*
G02*
X61262500Y-90520000I-147500J0D01*
G01*
X60967500Y-90520000D01*
G75*
G02*
X60820000Y-90372500I0J147500D01*
G01*
X60820000Y-90027500D01*
G75*
G02*
X60967500Y-89880000I147500J0D01*
G01*
X61262500Y-89880000D01*
G75*
G02*
X61410000Y-90027500I0J-147500D01*
G01*
G37*
G36*
G01*
X62380000Y-90027500D02*
X62380000Y-90372500D01*
G75*
G02*
X62232500Y-90520000I-147500J0D01*
G01*
X61937500Y-90520000D01*
G75*
G02*
X61790000Y-90372500I0J147500D01*
G01*
X61790000Y-90027500D01*
G75*
G02*
X61937500Y-89880000I147500J0D01*
G01*
X62232500Y-89880000D01*
G75*
G02*
X62380000Y-90027500I0J-147500D01*
G01*
G37*
G36*
G01*
X120772500Y-108310000D02*
X120427500Y-108310000D01*
G75*
G02*
X120280000Y-108162500I0J147500D01*
G01*
X120280000Y-107867500D01*
G75*
G02*
X120427500Y-107720000I147500J0D01*
G01*
X120772500Y-107720000D01*
G75*
G02*
X120920000Y-107867500I0J-147500D01*
G01*
X120920000Y-108162500D01*
G75*
G02*
X120772500Y-108310000I-147500J0D01*
G01*
G37*
G36*
G01*
X120772500Y-109280000D02*
X120427500Y-109280000D01*
G75*
G02*
X120280000Y-109132500I0J147500D01*
G01*
X120280000Y-108837500D01*
G75*
G02*
X120427500Y-108690000I147500J0D01*
G01*
X120772500Y-108690000D01*
G75*
G02*
X120920000Y-108837500I0J-147500D01*
G01*
X120920000Y-109132500D01*
G75*
G02*
X120772500Y-109280000I-147500J0D01*
G01*
G37*
G36*
G01*
X60125000Y-115227500D02*
X60125000Y-115572500D01*
G75*
G02*
X59977500Y-115720000I-147500J0D01*
G01*
X59682500Y-115720000D01*
G75*
G02*
X59535000Y-115572500I0J147500D01*
G01*
X59535000Y-115227500D01*
G75*
G02*
X59682500Y-115080000I147500J0D01*
G01*
X59977500Y-115080000D01*
G75*
G02*
X60125000Y-115227500I0J-147500D01*
G01*
G37*
G36*
G01*
X61095000Y-115227500D02*
X61095000Y-115572500D01*
G75*
G02*
X60947500Y-115720000I-147500J0D01*
G01*
X60652500Y-115720000D01*
G75*
G02*
X60505000Y-115572500I0J147500D01*
G01*
X60505000Y-115227500D01*
G75*
G02*
X60652500Y-115080000I147500J0D01*
G01*
X60947500Y-115080000D01*
G75*
G02*
X61095000Y-115227500I0J-147500D01*
G01*
G37*
G36*
G01*
X60505000Y-116572500D02*
X60505000Y-116227500D01*
G75*
G02*
X60652500Y-116080000I147500J0D01*
G01*
X60947500Y-116080000D01*
G75*
G02*
X61095000Y-116227500I0J-147500D01*
G01*
X61095000Y-116572500D01*
G75*
G02*
X60947500Y-116720000I-147500J0D01*
G01*
X60652500Y-116720000D01*
G75*
G02*
X60505000Y-116572500I0J147500D01*
G01*
G37*
G36*
G01*
X59535000Y-116572500D02*
X59535000Y-116227500D01*
G75*
G02*
X59682500Y-116080000I147500J0D01*
G01*
X59977500Y-116080000D01*
G75*
G02*
X60125000Y-116227500I0J-147500D01*
G01*
X60125000Y-116572500D01*
G75*
G02*
X59977500Y-116720000I-147500J0D01*
G01*
X59682500Y-116720000D01*
G75*
G02*
X59535000Y-116572500I0J147500D01*
G01*
G37*
G36*
G01*
X62110000Y-116227500D02*
X62110000Y-116572500D01*
G75*
G02*
X61962500Y-116720000I-147500J0D01*
G01*
X61667500Y-116720000D01*
G75*
G02*
X61520000Y-116572500I0J147500D01*
G01*
X61520000Y-116227500D01*
G75*
G02*
X61667500Y-116080000I147500J0D01*
G01*
X61962500Y-116080000D01*
G75*
G02*
X62110000Y-116227500I0J-147500D01*
G01*
G37*
G36*
G01*
X63080000Y-116227500D02*
X63080000Y-116572500D01*
G75*
G02*
X62932500Y-116720000I-147500J0D01*
G01*
X62637500Y-116720000D01*
G75*
G02*
X62490000Y-116572500I0J147500D01*
G01*
X62490000Y-116227500D01*
G75*
G02*
X62637500Y-116080000I147500J0D01*
G01*
X62932500Y-116080000D01*
G75*
G02*
X63080000Y-116227500I0J-147500D01*
G01*
G37*
G36*
G01*
X55590000Y-100072500D02*
X55590000Y-99727500D01*
G75*
G02*
X55737500Y-99580000I147500J0D01*
G01*
X56032500Y-99580000D01*
G75*
G02*
X56180000Y-99727500I0J-147500D01*
G01*
X56180000Y-100072500D01*
G75*
G02*
X56032500Y-100220000I-147500J0D01*
G01*
X55737500Y-100220000D01*
G75*
G02*
X55590000Y-100072500I0J147500D01*
G01*
G37*
G36*
G01*
X54620000Y-100072500D02*
X54620000Y-99727500D01*
G75*
G02*
X54767500Y-99580000I147500J0D01*
G01*
X55062500Y-99580000D01*
G75*
G02*
X55210000Y-99727500I0J-147500D01*
G01*
X55210000Y-100072500D01*
G75*
G02*
X55062500Y-100220000I-147500J0D01*
G01*
X54767500Y-100220000D01*
G75*
G02*
X54620000Y-100072500I0J147500D01*
G01*
G37*
G36*
G01*
X59995000Y-102827500D02*
X59995000Y-103172500D01*
G75*
G02*
X59847500Y-103320000I-147500J0D01*
G01*
X59552500Y-103320000D01*
G75*
G02*
X59405000Y-103172500I0J147500D01*
G01*
X59405000Y-102827500D01*
G75*
G02*
X59552500Y-102680000I147500J0D01*
G01*
X59847500Y-102680000D01*
G75*
G02*
X59995000Y-102827500I0J-147500D01*
G01*
G37*
G36*
G01*
X60965000Y-102827500D02*
X60965000Y-103172500D01*
G75*
G02*
X60817500Y-103320000I-147500J0D01*
G01*
X60522500Y-103320000D01*
G75*
G02*
X60375000Y-103172500I0J147500D01*
G01*
X60375000Y-102827500D01*
G75*
G02*
X60522500Y-102680000I147500J0D01*
G01*
X60817500Y-102680000D01*
G75*
G02*
X60965000Y-102827500I0J-147500D01*
G01*
G37*
G36*
G01*
X60010000Y-108027500D02*
X60010000Y-108372500D01*
G75*
G02*
X59862500Y-108520000I-147500J0D01*
G01*
X59567500Y-108520000D01*
G75*
G02*
X59420000Y-108372500I0J147500D01*
G01*
X59420000Y-108027500D01*
G75*
G02*
X59567500Y-107880000I147500J0D01*
G01*
X59862500Y-107880000D01*
G75*
G02*
X60010000Y-108027500I0J-147500D01*
G01*
G37*
G36*
G01*
X60980000Y-108027500D02*
X60980000Y-108372500D01*
G75*
G02*
X60832500Y-108520000I-147500J0D01*
G01*
X60537500Y-108520000D01*
G75*
G02*
X60390000Y-108372500I0J147500D01*
G01*
X60390000Y-108027500D01*
G75*
G02*
X60537500Y-107880000I147500J0D01*
G01*
X60832500Y-107880000D01*
G75*
G02*
X60980000Y-108027500I0J-147500D01*
G01*
G37*
G36*
G01*
X118772500Y-108310000D02*
X118427500Y-108310000D01*
G75*
G02*
X118280000Y-108162500I0J147500D01*
G01*
X118280000Y-107867500D01*
G75*
G02*
X118427500Y-107720000I147500J0D01*
G01*
X118772500Y-107720000D01*
G75*
G02*
X118920000Y-107867500I0J-147500D01*
G01*
X118920000Y-108162500D01*
G75*
G02*
X118772500Y-108310000I-147500J0D01*
G01*
G37*
G36*
G01*
X118772500Y-109280000D02*
X118427500Y-109280000D01*
G75*
G02*
X118280000Y-109132500I0J147500D01*
G01*
X118280000Y-108837500D01*
G75*
G02*
X118427500Y-108690000I147500J0D01*
G01*
X118772500Y-108690000D01*
G75*
G02*
X118920000Y-108837500I0J-147500D01*
G01*
X118920000Y-109132500D01*
G75*
G02*
X118772500Y-109280000I-147500J0D01*
G01*
G37*
G36*
G01*
X119427500Y-108690000D02*
X119772500Y-108690000D01*
G75*
G02*
X119920000Y-108837500I0J-147500D01*
G01*
X119920000Y-109132500D01*
G75*
G02*
X119772500Y-109280000I-147500J0D01*
G01*
X119427500Y-109280000D01*
G75*
G02*
X119280000Y-109132500I0J147500D01*
G01*
X119280000Y-108837500D01*
G75*
G02*
X119427500Y-108690000I147500J0D01*
G01*
G37*
G36*
G01*
X119427500Y-107720000D02*
X119772500Y-107720000D01*
G75*
G02*
X119920000Y-107867500I0J-147500D01*
G01*
X119920000Y-108162500D01*
G75*
G02*
X119772500Y-108310000I-147500J0D01*
G01*
X119427500Y-108310000D01*
G75*
G02*
X119280000Y-108162500I0J147500D01*
G01*
X119280000Y-107867500D01*
G75*
G02*
X119427500Y-107720000I147500J0D01*
G01*
G37*
G36*
G01*
X120327500Y-101805000D02*
X120672500Y-101805000D01*
G75*
G02*
X120820000Y-101952500I0J-147500D01*
G01*
X120820000Y-102247500D01*
G75*
G02*
X120672500Y-102395000I-147500J0D01*
G01*
X120327500Y-102395000D01*
G75*
G02*
X120180000Y-102247500I0J147500D01*
G01*
X120180000Y-101952500D01*
G75*
G02*
X120327500Y-101805000I147500J0D01*
G01*
G37*
G36*
G01*
X120327500Y-100835000D02*
X120672500Y-100835000D01*
G75*
G02*
X120820000Y-100982500I0J-147500D01*
G01*
X120820000Y-101277500D01*
G75*
G02*
X120672500Y-101425000I-147500J0D01*
G01*
X120327500Y-101425000D01*
G75*
G02*
X120180000Y-101277500I0J147500D01*
G01*
X120180000Y-100982500D01*
G75*
G02*
X120327500Y-100835000I147500J0D01*
G01*
G37*
G36*
G01*
X120327500Y-103975000D02*
X120672500Y-103975000D01*
G75*
G02*
X120820000Y-104122500I0J-147500D01*
G01*
X120820000Y-104417500D01*
G75*
G02*
X120672500Y-104565000I-147500J0D01*
G01*
X120327500Y-104565000D01*
G75*
G02*
X120180000Y-104417500I0J147500D01*
G01*
X120180000Y-104122500D01*
G75*
G02*
X120327500Y-103975000I147500J0D01*
G01*
G37*
G36*
G01*
X120327500Y-103005000D02*
X120672500Y-103005000D01*
G75*
G02*
X120820000Y-103152500I0J-147500D01*
G01*
X120820000Y-103447500D01*
G75*
G02*
X120672500Y-103595000I-147500J0D01*
G01*
X120327500Y-103595000D01*
G75*
G02*
X120180000Y-103447500I0J147500D01*
G01*
X120180000Y-103152500D01*
G75*
G02*
X120327500Y-103005000I147500J0D01*
G01*
G37*
G36*
G01*
X119572500Y-103610000D02*
X119227500Y-103610000D01*
G75*
G02*
X119080000Y-103462500I0J147500D01*
G01*
X119080000Y-103167500D01*
G75*
G02*
X119227500Y-103020000I147500J0D01*
G01*
X119572500Y-103020000D01*
G75*
G02*
X119720000Y-103167500I0J-147500D01*
G01*
X119720000Y-103462500D01*
G75*
G02*
X119572500Y-103610000I-147500J0D01*
G01*
G37*
G36*
G01*
X119572500Y-104580000D02*
X119227500Y-104580000D01*
G75*
G02*
X119080000Y-104432500I0J147500D01*
G01*
X119080000Y-104137500D01*
G75*
G02*
X119227500Y-103990000I147500J0D01*
G01*
X119572500Y-103990000D01*
G75*
G02*
X119720000Y-104137500I0J-147500D01*
G01*
X119720000Y-104432500D01*
G75*
G02*
X119572500Y-104580000I-147500J0D01*
G01*
G37*
G36*
G01*
X60010000Y-106727500D02*
X60010000Y-107072500D01*
G75*
G02*
X59862500Y-107220000I-147500J0D01*
G01*
X59567500Y-107220000D01*
G75*
G02*
X59420000Y-107072500I0J147500D01*
G01*
X59420000Y-106727500D01*
G75*
G02*
X59567500Y-106580000I147500J0D01*
G01*
X59862500Y-106580000D01*
G75*
G02*
X60010000Y-106727500I0J-147500D01*
G01*
G37*
G36*
G01*
X60980000Y-106727500D02*
X60980000Y-107072500D01*
G75*
G02*
X60832500Y-107220000I-147500J0D01*
G01*
X60537500Y-107220000D01*
G75*
G02*
X60390000Y-107072500I0J147500D01*
G01*
X60390000Y-106727500D01*
G75*
G02*
X60537500Y-106580000I147500J0D01*
G01*
X60832500Y-106580000D01*
G75*
G02*
X60980000Y-106727500I0J-147500D01*
G01*
G37*
G36*
G01*
X63527500Y-115190000D02*
X63872500Y-115190000D01*
G75*
G02*
X64020000Y-115337500I0J-147500D01*
G01*
X64020000Y-115632500D01*
G75*
G02*
X63872500Y-115780000I-147500J0D01*
G01*
X63527500Y-115780000D01*
G75*
G02*
X63380000Y-115632500I0J147500D01*
G01*
X63380000Y-115337500D01*
G75*
G02*
X63527500Y-115190000I147500J0D01*
G01*
G37*
G36*
G01*
X63527500Y-114220000D02*
X63872500Y-114220000D01*
G75*
G02*
X64020000Y-114367500I0J-147500D01*
G01*
X64020000Y-114662500D01*
G75*
G02*
X63872500Y-114810000I-147500J0D01*
G01*
X63527500Y-114810000D01*
G75*
G02*
X63380000Y-114662500I0J147500D01*
G01*
X63380000Y-114367500D01*
G75*
G02*
X63527500Y-114220000I147500J0D01*
G01*
G37*
G36*
G01*
X74727500Y-103990000D02*
X75072500Y-103990000D01*
G75*
G02*
X75220000Y-104137500I0J-147500D01*
G01*
X75220000Y-104432500D01*
G75*
G02*
X75072500Y-104580000I-147500J0D01*
G01*
X74727500Y-104580000D01*
G75*
G02*
X74580000Y-104432500I0J147500D01*
G01*
X74580000Y-104137500D01*
G75*
G02*
X74727500Y-103990000I147500J0D01*
G01*
G37*
G36*
G01*
X74727500Y-103020000D02*
X75072500Y-103020000D01*
G75*
G02*
X75220000Y-103167500I0J-147500D01*
G01*
X75220000Y-103462500D01*
G75*
G02*
X75072500Y-103610000I-147500J0D01*
G01*
X74727500Y-103610000D01*
G75*
G02*
X74580000Y-103462500I0J147500D01*
G01*
X74580000Y-103167500D01*
G75*
G02*
X74727500Y-103020000I147500J0D01*
G01*
G37*
G36*
G01*
X59995000Y-105427500D02*
X59995000Y-105772500D01*
G75*
G02*
X59847500Y-105920000I-147500J0D01*
G01*
X59552500Y-105920000D01*
G75*
G02*
X59405000Y-105772500I0J147500D01*
G01*
X59405000Y-105427500D01*
G75*
G02*
X59552500Y-105280000I147500J0D01*
G01*
X59847500Y-105280000D01*
G75*
G02*
X59995000Y-105427500I0J-147500D01*
G01*
G37*
G36*
G01*
X60965000Y-105427500D02*
X60965000Y-105772500D01*
G75*
G02*
X60817500Y-105920000I-147500J0D01*
G01*
X60522500Y-105920000D01*
G75*
G02*
X60375000Y-105772500I0J147500D01*
G01*
X60375000Y-105427500D01*
G75*
G02*
X60522500Y-105280000I147500J0D01*
G01*
X60817500Y-105280000D01*
G75*
G02*
X60965000Y-105427500I0J-147500D01*
G01*
G37*
G36*
G01*
X59995000Y-104127500D02*
X59995000Y-104472500D01*
G75*
G02*
X59847500Y-104620000I-147500J0D01*
G01*
X59552500Y-104620000D01*
G75*
G02*
X59405000Y-104472500I0J147500D01*
G01*
X59405000Y-104127500D01*
G75*
G02*
X59552500Y-103980000I147500J0D01*
G01*
X59847500Y-103980000D01*
G75*
G02*
X59995000Y-104127500I0J-147500D01*
G01*
G37*
G36*
G01*
X60965000Y-104127500D02*
X60965000Y-104472500D01*
G75*
G02*
X60817500Y-104620000I-147500J0D01*
G01*
X60522500Y-104620000D01*
G75*
G02*
X60375000Y-104472500I0J147500D01*
G01*
X60375000Y-104127500D01*
G75*
G02*
X60522500Y-103980000I147500J0D01*
G01*
X60817500Y-103980000D01*
G75*
G02*
X60965000Y-104127500I0J-147500D01*
G01*
G37*
G36*
G01*
X126290000Y-101572500D02*
X126290000Y-101227500D01*
G75*
G02*
X126437500Y-101080000I147500J0D01*
G01*
X126732500Y-101080000D01*
G75*
G02*
X126880000Y-101227500I0J-147500D01*
G01*
X126880000Y-101572500D01*
G75*
G02*
X126732500Y-101720000I-147500J0D01*
G01*
X126437500Y-101720000D01*
G75*
G02*
X126290000Y-101572500I0J147500D01*
G01*
G37*
G36*
G01*
X125320000Y-101572500D02*
X125320000Y-101227500D01*
G75*
G02*
X125467500Y-101080000I147500J0D01*
G01*
X125762500Y-101080000D01*
G75*
G02*
X125910000Y-101227500I0J-147500D01*
G01*
X125910000Y-101572500D01*
G75*
G02*
X125762500Y-101720000I-147500J0D01*
G01*
X125467500Y-101720000D01*
G75*
G02*
X125320000Y-101572500I0J147500D01*
G01*
G37*
G36*
G01*
X76590000Y-90472500D02*
X76590000Y-90127500D01*
G75*
G02*
X76737500Y-89980000I147500J0D01*
G01*
X77032500Y-89980000D01*
G75*
G02*
X77180000Y-90127500I0J-147500D01*
G01*
X77180000Y-90472500D01*
G75*
G02*
X77032500Y-90620000I-147500J0D01*
G01*
X76737500Y-90620000D01*
G75*
G02*
X76590000Y-90472500I0J147500D01*
G01*
G37*
G36*
G01*
X75620000Y-90472500D02*
X75620000Y-90127500D01*
G75*
G02*
X75767500Y-89980000I147500J0D01*
G01*
X76062500Y-89980000D01*
G75*
G02*
X76210000Y-90127500I0J-147500D01*
G01*
X76210000Y-90472500D01*
G75*
G02*
X76062500Y-90620000I-147500J0D01*
G01*
X75767500Y-90620000D01*
G75*
G02*
X75620000Y-90472500I0J147500D01*
G01*
G37*
G36*
G01*
X119227500Y-87390000D02*
X119572500Y-87390000D01*
G75*
G02*
X119720000Y-87537500I0J-147500D01*
G01*
X119720000Y-87832500D01*
G75*
G02*
X119572500Y-87980000I-147500J0D01*
G01*
X119227500Y-87980000D01*
G75*
G02*
X119080000Y-87832500I0J147500D01*
G01*
X119080000Y-87537500D01*
G75*
G02*
X119227500Y-87390000I147500J0D01*
G01*
G37*
G36*
G01*
X119227500Y-86420000D02*
X119572500Y-86420000D01*
G75*
G02*
X119720000Y-86567500I0J-147500D01*
G01*
X119720000Y-86862500D01*
G75*
G02*
X119572500Y-87010000I-147500J0D01*
G01*
X119227500Y-87010000D01*
G75*
G02*
X119080000Y-86862500I0J147500D01*
G01*
X119080000Y-86567500D01*
G75*
G02*
X119227500Y-86420000I147500J0D01*
G01*
G37*
G36*
G01*
X120672500Y-87010000D02*
X120327500Y-87010000D01*
G75*
G02*
X120180000Y-86862500I0J147500D01*
G01*
X120180000Y-86567500D01*
G75*
G02*
X120327500Y-86420000I147500J0D01*
G01*
X120672500Y-86420000D01*
G75*
G02*
X120820000Y-86567500I0J-147500D01*
G01*
X120820000Y-86862500D01*
G75*
G02*
X120672500Y-87010000I-147500J0D01*
G01*
G37*
G36*
G01*
X120672500Y-87980000D02*
X120327500Y-87980000D01*
G75*
G02*
X120180000Y-87832500I0J147500D01*
G01*
X120180000Y-87537500D01*
G75*
G02*
X120327500Y-87390000I147500J0D01*
G01*
X120672500Y-87390000D01*
G75*
G02*
X120820000Y-87537500I0J-147500D01*
G01*
X120820000Y-87832500D01*
G75*
G02*
X120672500Y-87980000I-147500J0D01*
G01*
G37*
G36*
G01*
X120672500Y-89210000D02*
X120327500Y-89210000D01*
G75*
G02*
X120180000Y-89062500I0J147500D01*
G01*
X120180000Y-88767500D01*
G75*
G02*
X120327500Y-88620000I147500J0D01*
G01*
X120672500Y-88620000D01*
G75*
G02*
X120820000Y-88767500I0J-147500D01*
G01*
X120820000Y-89062500D01*
G75*
G02*
X120672500Y-89210000I-147500J0D01*
G01*
G37*
G36*
G01*
X120672500Y-90180000D02*
X120327500Y-90180000D01*
G75*
G02*
X120180000Y-90032500I0J147500D01*
G01*
X120180000Y-89737500D01*
G75*
G02*
X120327500Y-89590000I147500J0D01*
G01*
X120672500Y-89590000D01*
G75*
G02*
X120820000Y-89737500I0J-147500D01*
G01*
X120820000Y-90032500D01*
G75*
G02*
X120672500Y-90180000I-147500J0D01*
G01*
G37*
G36*
G01*
X75072500Y-105710000D02*
X74727500Y-105710000D01*
G75*
G02*
X74580000Y-105562500I0J147500D01*
G01*
X74580000Y-105267500D01*
G75*
G02*
X74727500Y-105120000I147500J0D01*
G01*
X75072500Y-105120000D01*
G75*
G02*
X75220000Y-105267500I0J-147500D01*
G01*
X75220000Y-105562500D01*
G75*
G02*
X75072500Y-105710000I-147500J0D01*
G01*
G37*
G36*
G01*
X75072500Y-106680000D02*
X74727500Y-106680000D01*
G75*
G02*
X74580000Y-106532500I0J147500D01*
G01*
X74580000Y-106237500D01*
G75*
G02*
X74727500Y-106090000I147500J0D01*
G01*
X75072500Y-106090000D01*
G75*
G02*
X75220000Y-106237500I0J-147500D01*
G01*
X75220000Y-106532500D01*
G75*
G02*
X75072500Y-106680000I-147500J0D01*
G01*
G37*
G36*
G01*
X92010000Y-97627500D02*
X92010000Y-97972500D01*
G75*
G02*
X91862500Y-98120000I-147500J0D01*
G01*
X91567500Y-98120000D01*
G75*
G02*
X91420000Y-97972500I0J147500D01*
G01*
X91420000Y-97627500D01*
G75*
G02*
X91567500Y-97480000I147500J0D01*
G01*
X91862500Y-97480000D01*
G75*
G02*
X92010000Y-97627500I0J-147500D01*
G01*
G37*
G36*
G01*
X92980000Y-97627500D02*
X92980000Y-97972500D01*
G75*
G02*
X92832500Y-98120000I-147500J0D01*
G01*
X92537500Y-98120000D01*
G75*
G02*
X92390000Y-97972500I0J147500D01*
G01*
X92390000Y-97627500D01*
G75*
G02*
X92537500Y-97480000I147500J0D01*
G01*
X92832500Y-97480000D01*
G75*
G02*
X92980000Y-97627500I0J-147500D01*
G01*
G37*
G36*
G01*
X63527500Y-110090000D02*
X63872500Y-110090000D01*
G75*
G02*
X64020000Y-110237500I0J-147500D01*
G01*
X64020000Y-110532500D01*
G75*
G02*
X63872500Y-110680000I-147500J0D01*
G01*
X63527500Y-110680000D01*
G75*
G02*
X63380000Y-110532500I0J147500D01*
G01*
X63380000Y-110237500D01*
G75*
G02*
X63527500Y-110090000I147500J0D01*
G01*
G37*
G36*
G01*
X63527500Y-109120000D02*
X63872500Y-109120000D01*
G75*
G02*
X64020000Y-109267500I0J-147500D01*
G01*
X64020000Y-109562500D01*
G75*
G02*
X63872500Y-109710000I-147500J0D01*
G01*
X63527500Y-109710000D01*
G75*
G02*
X63380000Y-109562500I0J147500D01*
G01*
X63380000Y-109267500D01*
G75*
G02*
X63527500Y-109120000I147500J0D01*
G01*
G37*
G36*
G01*
X75690000Y-100372500D02*
X75690000Y-100027500D01*
G75*
G02*
X75837500Y-99880000I147500J0D01*
G01*
X76132500Y-99880000D01*
G75*
G02*
X76280000Y-100027500I0J-147500D01*
G01*
X76280000Y-100372500D01*
G75*
G02*
X76132500Y-100520000I-147500J0D01*
G01*
X75837500Y-100520000D01*
G75*
G02*
X75690000Y-100372500I0J147500D01*
G01*
G37*
G36*
G01*
X74720000Y-100372500D02*
X74720000Y-100027500D01*
G75*
G02*
X74867500Y-99880000I147500J0D01*
G01*
X75162500Y-99880000D01*
G75*
G02*
X75310000Y-100027500I0J-147500D01*
G01*
X75310000Y-100372500D01*
G75*
G02*
X75162500Y-100520000I-147500J0D01*
G01*
X74867500Y-100520000D01*
G75*
G02*
X74720000Y-100372500I0J147500D01*
G01*
G37*
D26*
X71405000Y-93945000D03*
X68295000Y-93945000D03*
X71405000Y-97055000D03*
X68295000Y-97055000D03*
D27*
X66600000Y-91500000D03*
X67100000Y-91500000D03*
X67600000Y-91500000D03*
X68100000Y-91500000D03*
X68600000Y-91500000D03*
X69100000Y-91500000D03*
X69600000Y-91500000D03*
X70100000Y-91500000D03*
X70600000Y-91500000D03*
X71100000Y-91500000D03*
X71600000Y-91500000D03*
X72100000Y-91500000D03*
X72600000Y-91500000D03*
X73100000Y-91500000D03*
D28*
X73850000Y-92250000D03*
X73850000Y-92750000D03*
X73850000Y-93250000D03*
X73850000Y-93750000D03*
X73850000Y-94250000D03*
X73850000Y-94750000D03*
X73850000Y-95250000D03*
X73850000Y-95750000D03*
X73850000Y-96250000D03*
X73850000Y-96750000D03*
X73850000Y-97250000D03*
X73850000Y-97750000D03*
X73850000Y-98250000D03*
X73850000Y-98750000D03*
D27*
X73100000Y-99500000D03*
X72600000Y-99500000D03*
X72100000Y-99500000D03*
X71600000Y-99500000D03*
X71100000Y-99500000D03*
X70600000Y-99500000D03*
X70100000Y-99500000D03*
X69600000Y-99500000D03*
X69100000Y-99500000D03*
X68600000Y-99500000D03*
X68100000Y-99500000D03*
X67600000Y-99500000D03*
X67100000Y-99500000D03*
X66600000Y-99500000D03*
D28*
X65850000Y-98750000D03*
X65850000Y-98250000D03*
X65850000Y-97750000D03*
X65850000Y-97250000D03*
X65850000Y-96750000D03*
X65850000Y-96250000D03*
X65850000Y-95750000D03*
X65850000Y-95250000D03*
X65850000Y-94750000D03*
X65850000Y-94250000D03*
X65850000Y-93750000D03*
X65850000Y-93250000D03*
X65850000Y-92750000D03*
X65850000Y-92250000D03*
G36*
G01*
X59340000Y-95872500D02*
X59340000Y-95527500D01*
G75*
G02*
X59487500Y-95380000I147500J0D01*
G01*
X59782500Y-95380000D01*
G75*
G02*
X59930000Y-95527500I0J-147500D01*
G01*
X59930000Y-95872500D01*
G75*
G02*
X59782500Y-96020000I-147500J0D01*
G01*
X59487500Y-96020000D01*
G75*
G02*
X59340000Y-95872500I0J147500D01*
G01*
G37*
G36*
G01*
X58370000Y-95872500D02*
X58370000Y-95527500D01*
G75*
G02*
X58517500Y-95380000I147500J0D01*
G01*
X58812500Y-95380000D01*
G75*
G02*
X58960000Y-95527500I0J-147500D01*
G01*
X58960000Y-95872500D01*
G75*
G02*
X58812500Y-96020000I-147500J0D01*
G01*
X58517500Y-96020000D01*
G75*
G02*
X58370000Y-95872500I0J147500D01*
G01*
G37*
G36*
G01*
X55590000Y-101072500D02*
X55590000Y-100727500D01*
G75*
G02*
X55737500Y-100580000I147500J0D01*
G01*
X56032500Y-100580000D01*
G75*
G02*
X56180000Y-100727500I0J-147500D01*
G01*
X56180000Y-101072500D01*
G75*
G02*
X56032500Y-101220000I-147500J0D01*
G01*
X55737500Y-101220000D01*
G75*
G02*
X55590000Y-101072500I0J147500D01*
G01*
G37*
G36*
G01*
X54620000Y-101072500D02*
X54620000Y-100727500D01*
G75*
G02*
X54767500Y-100580000I147500J0D01*
G01*
X55062500Y-100580000D01*
G75*
G02*
X55210000Y-100727500I0J-147500D01*
G01*
X55210000Y-101072500D01*
G75*
G02*
X55062500Y-101220000I-147500J0D01*
G01*
X54767500Y-101220000D01*
G75*
G02*
X54620000Y-101072500I0J147500D01*
G01*
G37*
G36*
G01*
X125710000Y-110127500D02*
X125710000Y-110472500D01*
G75*
G02*
X125562500Y-110620000I-147500J0D01*
G01*
X125267500Y-110620000D01*
G75*
G02*
X125120000Y-110472500I0J147500D01*
G01*
X125120000Y-110127500D01*
G75*
G02*
X125267500Y-109980000I147500J0D01*
G01*
X125562500Y-109980000D01*
G75*
G02*
X125710000Y-110127500I0J-147500D01*
G01*
G37*
G36*
G01*
X126680000Y-110127500D02*
X126680000Y-110472500D01*
G75*
G02*
X126532500Y-110620000I-147500J0D01*
G01*
X126237500Y-110620000D01*
G75*
G02*
X126090000Y-110472500I0J147500D01*
G01*
X126090000Y-110127500D01*
G75*
G02*
X126237500Y-109980000I147500J0D01*
G01*
X126532500Y-109980000D01*
G75*
G02*
X126680000Y-110127500I0J-147500D01*
G01*
G37*
G36*
G01*
X125772500Y-102710000D02*
X125427500Y-102710000D01*
G75*
G02*
X125280000Y-102562500I0J147500D01*
G01*
X125280000Y-102267500D01*
G75*
G02*
X125427500Y-102120000I147500J0D01*
G01*
X125772500Y-102120000D01*
G75*
G02*
X125920000Y-102267500I0J-147500D01*
G01*
X125920000Y-102562500D01*
G75*
G02*
X125772500Y-102710000I-147500J0D01*
G01*
G37*
G36*
G01*
X125772500Y-103680000D02*
X125427500Y-103680000D01*
G75*
G02*
X125280000Y-103532500I0J147500D01*
G01*
X125280000Y-103237500D01*
G75*
G02*
X125427500Y-103090000I147500J0D01*
G01*
X125772500Y-103090000D01*
G75*
G02*
X125920000Y-103237500I0J-147500D01*
G01*
X125920000Y-103532500D01*
G75*
G02*
X125772500Y-103680000I-147500J0D01*
G01*
G37*
G36*
G01*
X125772500Y-97895000D02*
X125427500Y-97895000D01*
G75*
G02*
X125280000Y-97747500I0J147500D01*
G01*
X125280000Y-97452500D01*
G75*
G02*
X125427500Y-97305000I147500J0D01*
G01*
X125772500Y-97305000D01*
G75*
G02*
X125920000Y-97452500I0J-147500D01*
G01*
X125920000Y-97747500D01*
G75*
G02*
X125772500Y-97895000I-147500J0D01*
G01*
G37*
G36*
G01*
X125772500Y-98865000D02*
X125427500Y-98865000D01*
G75*
G02*
X125280000Y-98717500I0J147500D01*
G01*
X125280000Y-98422500D01*
G75*
G02*
X125427500Y-98275000I147500J0D01*
G01*
X125772500Y-98275000D01*
G75*
G02*
X125920000Y-98422500I0J-147500D01*
G01*
X125920000Y-98717500D01*
G75*
G02*
X125772500Y-98865000I-147500J0D01*
G01*
G37*
G36*
G01*
X125427500Y-93090000D02*
X125772500Y-93090000D01*
G75*
G02*
X125920000Y-93237500I0J-147500D01*
G01*
X125920000Y-93532500D01*
G75*
G02*
X125772500Y-93680000I-147500J0D01*
G01*
X125427500Y-93680000D01*
G75*
G02*
X125280000Y-93532500I0J147500D01*
G01*
X125280000Y-93237500D01*
G75*
G02*
X125427500Y-93090000I147500J0D01*
G01*
G37*
G36*
G01*
X125427500Y-92120000D02*
X125772500Y-92120000D01*
G75*
G02*
X125920000Y-92267500I0J-147500D01*
G01*
X125920000Y-92562500D01*
G75*
G02*
X125772500Y-92710000I-147500J0D01*
G01*
X125427500Y-92710000D01*
G75*
G02*
X125280000Y-92562500I0J147500D01*
G01*
X125280000Y-92267500D01*
G75*
G02*
X125427500Y-92120000I147500J0D01*
G01*
G37*
G36*
G01*
X65550000Y-116762500D02*
X65550000Y-117237500D01*
G75*
G02*
X65312500Y-117475000I-237500J0D01*
G01*
X64737500Y-117475000D01*
G75*
G02*
X64500000Y-117237500I0J237500D01*
G01*
X64500000Y-116762500D01*
G75*
G02*
X64737500Y-116525000I237500J0D01*
G01*
X65312500Y-116525000D01*
G75*
G02*
X65550000Y-116762500I0J-237500D01*
G01*
G37*
G36*
G01*
X67300000Y-116762500D02*
X67300000Y-117237500D01*
G75*
G02*
X67062500Y-117475000I-237500J0D01*
G01*
X66487500Y-117475000D01*
G75*
G02*
X66250000Y-117237500I0J237500D01*
G01*
X66250000Y-116762500D01*
G75*
G02*
X66487500Y-116525000I237500J0D01*
G01*
X67062500Y-116525000D01*
G75*
G02*
X67300000Y-116762500I0J-237500D01*
G01*
G37*
G36*
G01*
X68737500Y-109950000D02*
X68262500Y-109950000D01*
G75*
G02*
X68025000Y-109712500I0J237500D01*
G01*
X68025000Y-109137500D01*
G75*
G02*
X68262500Y-108900000I237500J0D01*
G01*
X68737500Y-108900000D01*
G75*
G02*
X68975000Y-109137500I0J-237500D01*
G01*
X68975000Y-109712500D01*
G75*
G02*
X68737500Y-109950000I-237500J0D01*
G01*
G37*
G36*
G01*
X68737500Y-111700000D02*
X68262500Y-111700000D01*
G75*
G02*
X68025000Y-111462500I0J237500D01*
G01*
X68025000Y-110887500D01*
G75*
G02*
X68262500Y-110650000I237500J0D01*
G01*
X68737500Y-110650000D01*
G75*
G02*
X68975000Y-110887500I0J-237500D01*
G01*
X68975000Y-111462500D01*
G75*
G02*
X68737500Y-111700000I-237500J0D01*
G01*
G37*
G36*
G01*
X126050000Y-104862500D02*
X126050000Y-105337500D01*
G75*
G02*
X125812500Y-105575000I-237500J0D01*
G01*
X125237500Y-105575000D01*
G75*
G02*
X125000000Y-105337500I0J237500D01*
G01*
X125000000Y-104862500D01*
G75*
G02*
X125237500Y-104625000I237500J0D01*
G01*
X125812500Y-104625000D01*
G75*
G02*
X126050000Y-104862500I0J-237500D01*
G01*
G37*
G36*
G01*
X127800000Y-104862500D02*
X127800000Y-105337500D01*
G75*
G02*
X127562500Y-105575000I-237500J0D01*
G01*
X126987500Y-105575000D01*
G75*
G02*
X126750000Y-105337500I0J237500D01*
G01*
X126750000Y-104862500D01*
G75*
G02*
X126987500Y-104625000I237500J0D01*
G01*
X127562500Y-104625000D01*
G75*
G02*
X127800000Y-104862500I0J-237500D01*
G01*
G37*
G36*
G01*
X68737500Y-115050000D02*
X68262500Y-115050000D01*
G75*
G02*
X68025000Y-114812500I0J237500D01*
G01*
X68025000Y-114237500D01*
G75*
G02*
X68262500Y-114000000I237500J0D01*
G01*
X68737500Y-114000000D01*
G75*
G02*
X68975000Y-114237500I0J-237500D01*
G01*
X68975000Y-114812500D01*
G75*
G02*
X68737500Y-115050000I-237500J0D01*
G01*
G37*
G36*
G01*
X68737500Y-116800000D02*
X68262500Y-116800000D01*
G75*
G02*
X68025000Y-116562500I0J237500D01*
G01*
X68025000Y-115987500D01*
G75*
G02*
X68262500Y-115750000I237500J0D01*
G01*
X68737500Y-115750000D01*
G75*
G02*
X68975000Y-115987500I0J-237500D01*
G01*
X68975000Y-116562500D01*
G75*
G02*
X68737500Y-116800000I-237500J0D01*
G01*
G37*
D21*
X90100000Y-105100000D03*
X90100000Y-104100000D03*
X90100000Y-104600000D03*
X90100000Y-103600000D03*
X90100000Y-103100000D03*
X90100000Y-102600000D03*
X88300000Y-105100000D03*
X88300000Y-104600000D03*
X88300000Y-104100000D03*
X88300000Y-103600000D03*
X88300000Y-103100000D03*
X88300000Y-102600000D03*
X90100000Y-105600000D03*
X88300000Y-105600000D03*
X90100000Y-102100000D03*
X88300000Y-102100000D03*
D23*
X103250000Y-106300000D03*
X104250000Y-106300000D03*
X103750000Y-106300000D03*
X104750000Y-106300000D03*
X105250000Y-106300000D03*
X105750000Y-106300000D03*
X103250000Y-104500000D03*
X103750000Y-104500000D03*
X104250000Y-104500000D03*
X104750000Y-104500000D03*
X105250000Y-104500000D03*
X105750000Y-104500000D03*
X102750000Y-106300000D03*
X102750000Y-104500000D03*
X106250000Y-106300000D03*
X106250000Y-104500000D03*
D29*
X59600000Y-99200000D03*
X60550000Y-99200000D03*
X58650000Y-99200000D03*
X58650000Y-97000000D03*
X59600000Y-97000000D03*
X60550000Y-97000000D03*
D24*
X126700000Y-106925000D03*
X126700000Y-107575000D03*
X126700000Y-108225000D03*
X126700000Y-108875000D03*
X122300000Y-108875000D03*
X122300000Y-108225000D03*
X122300000Y-107575000D03*
X122300000Y-106925000D03*
D11*
X122100000Y-103350000D03*
X122100000Y-101450000D03*
X124300000Y-101450000D03*
X124300000Y-102400000D03*
X124300000Y-103350000D03*
X122100000Y-98600000D03*
X122100000Y-99550000D03*
X122100000Y-97650000D03*
X124300000Y-97650000D03*
X124300000Y-98600000D03*
X124300000Y-99550000D03*
X61800000Y-113100000D03*
X61800000Y-112150000D03*
X61800000Y-114050000D03*
X59600000Y-114050000D03*
X59600000Y-113100000D03*
X59600000Y-112150000D03*
D30*
X72200000Y-117205000D03*
X72200000Y-115935000D03*
X72200000Y-114665000D03*
X72200000Y-113395000D03*
X77600000Y-113395000D03*
X77600000Y-114665000D03*
X77600000Y-115935000D03*
X77600000Y-117205000D03*
D31*
X52650000Y-96340000D03*
X52650000Y-94660000D03*
D32*
X52650000Y-98410000D03*
X52650000Y-92590000D03*
D33*
X54950000Y-97962500D03*
X54950000Y-93037500D03*
D34*
X55310000Y-96800000D03*
X55310000Y-96150000D03*
X55310000Y-95500000D03*
X55310000Y-94850000D03*
X55310000Y-94200000D03*
D30*
X72200000Y-111505000D03*
X72200000Y-110235000D03*
X72200000Y-108965000D03*
X72200000Y-107695000D03*
X77600000Y-107695000D03*
X77600000Y-108965000D03*
X77600000Y-110235000D03*
X77600000Y-111505000D03*
M02*
